<svg width="20" height="20" viewBox="0 0 20 20" fill="none" xmlns="http://www.w3.org/2000/svg">
<g clip-path="url(#clip0_4407_1512)">
<path d="M3.33331 6.66659C3.33331 5.78253 3.6845 4.93468 4.30962 4.30956C4.93474 3.68444 5.78259 3.33325 6.66665 3.33325H13.3333C14.2174 3.33325 15.0652 3.68444 15.6903 4.30956C16.3155 4.93468 16.6666 5.78253 16.6666 6.66659V13.3333C16.6666 14.2173 16.3155 15.0652 15.6903 15.6903C15.0652 16.3154 14.2174 16.6666 13.3333 16.6666H6.66665C5.78259 16.6666 4.93474 16.3154 4.30962 15.6903C3.6845 15.0652 3.33331 14.2173 3.33331 13.3333V6.66659Z" stroke="#8E8A8A" stroke-linecap="round" stroke-linejoin="round"/>
<path d="M7.5 10C7.5 10.663 7.76339 11.2989 8.23223 11.7678C8.70107 12.2366 9.33696 12.5 10 12.5C10.663 12.5 11.2989 12.2366 11.7678 11.7678C12.2366 11.2989 12.5 10.663 12.5 10C12.5 9.33696 12.2366 8.70107 11.7678 8.23223C11.2989 7.76339 10.663 7.5 10 7.5C9.33696 7.5 8.70107 7.76339 8.23223 8.23223C7.76339 8.70107 7.5 9.33696 7.5 10Z" stroke="#8E8A8A" stroke-linecap="round" stroke-linejoin="round"/>
<path d="M13.75 6.25V6.25833" stroke="#8E8A8A" stroke-linecap="round" stroke-linejoin="round"/>
</g>
<defs>
<clipPath id="clip0_4407_1512">
<rect width="20" height="20" fill="white"/>
</clipPath>
</defs>
</svg>
