<svg width="20" height="20" viewBox="0 0 20 20" fill="none" xmlns="http://www.w3.org/2000/svg">
<g clip-path="url(#clip0_4407_1509)">
<path d="M11.6667 15.8333H8.33335C6.56524 15.8333 4.86955 15.131 3.61931 13.8807C2.36907 12.6305 1.66669 10.9348 1.66669 9.16667V5H5.00002V9.16667C5.00002 10.0507 5.35121 10.8986 5.97633 11.5237C6.60145 12.1488 7.4493 12.5 8.33335 12.5V5H11.6667V8.75H11.6917C12.605 8.63604 13.4453 8.19238 14.0545 7.50243C14.6638 6.81248 15 5.92376 15 5.00333H18.3334L18.0484 6.42917C17.8777 7.28257 17.5143 8.08572 16.986 8.77735C16.4577 9.46897 15.7785 10.0308 15 10.42C15.757 10.6722 16.4322 11.1232 16.955 11.726C17.4778 12.3287 17.829 13.0608 17.9717 13.8458L18.3334 15.8367H15C15 14.9162 14.6638 14.0275 14.0545 13.3376C13.4453 12.6476 12.605 12.204 11.6917 12.09V15.84L11.6667 15.8333Z" stroke="#8E8A8A" stroke-linecap="round" stroke-linejoin="round"/>
</g>
<defs>
<clipPath id="clip0_4407_1509">
<rect width="20" height="20" fill="white"/>
</clipPath>
</defs>
</svg>
