<svg width="20" height="20" viewBox="0 0 20 20" fill="none" xmlns="http://www.w3.org/2000/svg">
<g clip-path="url(#clip0_4407_1520)">
<path d="M1.66669 6.66659C1.66669 5.78253 2.01788 4.93468 2.643 4.30956C3.26812 3.68444 4.11597 3.33325 5.00002 3.33325H15C15.8841 3.33325 16.7319 3.68444 17.357 4.30956C17.9822 4.93468 18.3334 5.78253 18.3334 6.66659V13.3333C18.3334 14.2173 17.9822 15.0652 17.357 15.6903C16.7319 16.3154 15.8841 16.6666 15 16.6666H5.00002C4.11597 16.6666 3.26812 16.3154 2.643 15.6903C2.01788 15.0652 1.66669 14.2173 1.66669 13.3333V6.66659Z" stroke="#8E8A8A" stroke-linecap="round" stroke-linejoin="round"/>
<path d="M8.33331 7.5L12.5 10L8.33331 12.5V7.5Z" stroke="#8E8A8A" stroke-linecap="round" stroke-linejoin="round"/>
</g>
<defs>
<clipPath id="clip0_4407_1520">
<rect width="20" height="20" fill="white"/>
</clipPath>
</defs>
</svg>
