<svg width="127" height="130" viewBox="0 0 127 130" fill="none" xmlns="http://www.w3.org/2000/svg">
<path d="M62.888 93.0204L62.8844 93.0311L62.8818 93.0422C62.7281 93.6948 62.329 94.7002 61.7252 95.9669C61.1237 97.2288 60.3263 98.7352 59.3854 100.384C57.5036 103.682 55.0524 107.543 52.4576 111.147C49.8613 114.754 47.1282 118.093 44.6832 120.356C43.4596 121.489 42.3196 122.341 41.3143 122.825C40.3044 123.311 39.4771 123.405 38.8398 123.106L38.7291 123.054L38.6202 123.11C38.3703 123.237 38.1196 123.365 37.8682 123.494C32.3201 126.301 26.5276 129.289 20.4307 129.75H20.4306H20.4304H20.4303H20.4301H20.4299H20.4298H20.4296H20.4294H20.4293H20.4291H20.4289H20.4288H20.4286H20.4284H20.4283H20.4281H20.428H20.4278H20.4276H20.4275H20.4273H20.4271H20.427H20.4268H20.4266H20.4265H20.4263H20.4262H20.426H20.4258H20.4257H20.4255H20.4254H20.4252H20.425H20.4249H20.4247H20.4245H20.4244H20.4242H20.4241H20.4239H20.4237H20.4236H20.4234H20.4233H20.4231H20.4229H20.4228H20.4226H20.4225H20.4223H20.4221H20.422H20.4218H20.4217H20.4215H20.4213H20.4212H20.421H20.4209H20.4207H20.4206H20.4204H20.4202H20.4201H20.4199H20.4198H20.4196H20.4195H20.4193H20.4191H20.419H20.4188H20.4187H20.4185H20.4184H20.4182H20.4181H20.4179H20.4177H20.4176H20.4174H20.4173H20.4171H20.417H20.4168H20.4167H20.4165H20.4164H20.4162H20.416H20.4159H20.4157H20.4156H20.4154H20.4153H20.4151H20.415H20.4148H20.4147H20.4145H20.4144H20.4142H20.4141H20.4139H20.4138H20.4136H20.4135H20.4133H20.4132H20.413H20.4129H20.4127H20.4126H20.4124H20.4123H20.4121H20.412H20.4119H20.4117H20.4116H20.4114H20.4113H20.4111H20.411H20.4108H20.4107H20.4105H20.4104H20.4102H20.4101H20.41H20.4098H20.4097H20.4095H20.4094H20.4092H20.4091H20.409H20.4088H20.4087H20.4085H20.4084H20.4083H20.4081H20.408H20.4078H20.4077H20.4075H20.4074H20.4073H20.4071H20.407H20.4069H20.4067H20.4066H20.4064H20.4063H20.4062H20.406H20.4059H20.4058H20.4056H20.4055H20.4053H20.4052H20.4051H20.4049H20.4048H20.4047H20.4045H20.4044H20.4043H20.4041H20.404H20.4039H20.4037H20.4036H20.4035H20.4034H20.4032H20.4031H20.403H20.4028H20.4027H20.4026H20.4024H20.4023H20.4022H20.4021H20.4019H20.4018H20.4017H20.4016H20.4014H20.4013H20.4012H20.401H20.4009H20.4008H20.4007H20.4006H20.4004H20.4003H20.4002H20.4001H20.3999H20.3998H20.3997H20.3996H20.3995H20.3993H20.3992H20.3991H20.399H20.3988H20.3987H20.3986H20.3985H20.3984H20.3983H20.3981H20.398H20.3979H20.3978H20.3977H20.3976H20.3974H20.3973H20.3972H20.397H20.3968H20.3965H20.3963H20.3961H20.3959H20.3957H20.3954H20.3952H20.395H20.3948H20.3946H20.3944H20.3942H20.394H20.3938H20.3936H20.3934H20.3932H20.393H20.3928H20.3926H20.3924H20.3922H20.392H20.3918H20.3916H20.3914H20.3913H20.3911H20.3909H20.3907H20.3905H20.3904H20.3902H20.39H20.3899H20.3897H20.3895H20.3894H20.3892H20.3891H20.3889H20.3887H20.3886H20.3884H20.3883H20.3881H20.388H20.3879H20.3877H20.3876H20.3874H20.3873H20.3872H20.387H20.3869H20.3868H20.3867H20.3865H20.3864H20.3863H20.3862H20.3861H20.3859H20.3857H20.3856H20.3854H20.3853H20.3851H20.385H20.3849H20.3847H20.3846H20.3845H20.3843H20.3842H20.3841H20.3839H20.3838H20.3837H20.3836H20.3834H20.3832C19.4354 129.75 18.8554 129.587 18.5083 129.343C18.1755 129.109 18.0244 128.778 17.9896 128.345C17.9538 127.901 18.0431 127.37 18.1824 126.775C18.2351 126.55 18.296 126.312 18.3583 126.069C18.4552 125.69 18.5555 125.299 18.6334 124.922L18.7055 124.573L18.3533 124.623C17.6708 124.721 16.5804 124.987 15.2815 125.303C14.8433 125.41 14.3814 125.522 13.9034 125.636C11.9957 126.09 9.80978 126.571 7.77335 126.813C5.72667 127.057 3.87376 127.053 2.6095 126.573C1.98412 126.335 1.51975 125.987 1.23831 125.51C0.964054 125.044 0.84586 124.426 0.959942 123.604C2.0526 122.199 3.48695 121.164 5.02488 120.207C5.50139 119.911 5.99016 119.621 6.48126 119.33C7.57981 118.678 8.69005 118.02 9.70112 117.267C14.4293 113.995 18.8387 110.301 23.2262 106.626C23.3959 106.483 23.5655 106.341 23.7351 106.199C24.9994 105.146 26.2544 104.029 27.5031 102.917C28.4451 102.079 29.3835 101.244 30.3196 100.441L30.0846 100.012C28.8554 100.384 27.6518 100.747 26.4244 100.887L26.4244 100.886L26.4155 100.888C25.8749 100.969 25.1076 100.931 24.588 100.7C24.3308 100.586 24.1663 100.439 24.0944 100.268C24.0261 100.107 24.0191 99.8696 24.1921 99.5188C25.2524 97.8208 26.727 96.4412 28.32 95.1456C28.8963 94.6769 29.4919 94.2165 30.088 93.7556C31.1273 92.9521 32.1683 92.1473 33.1119 91.2949C37.7452 87.5472 41.9958 82.7565 44.125 77.1457L44.2989 76.6876L43.826 76.8157C43.1675 76.994 42.3493 77.072 41.6608 76.9132C40.9885 76.758 40.4683 76.3881 40.2924 75.6791C40.2203 74.6282 40.6799 73.6314 41.2564 72.6022C41.3572 72.4223 41.4619 72.2409 41.5675 72.0581C42.053 71.2173 42.5554 70.3475 42.7646 69.4591C43.767 66.3623 44.2605 63.1544 44.7405 59.969L44.7694 59.7771C45.2408 56.6466 45.7087 53.5405 46.6376 50.5456L46.638 50.5457L46.6413 50.5326C48.4243 43.4572 52.2759 37.3057 56.6009 31.501L56.6062 31.4938L56.6111 31.4863C56.9319 30.9841 57.3004 30.4841 57.6788 29.9707L57.6845 29.9631C58.063 29.4495 58.4508 28.9229 58.798 28.3805C59.4916 27.2968 60.0413 26.1223 60.0413 24.7979V24.7895L60.0407 24.781C59.8926 22.5888 58.5363 20.4143 56.7717 19.1791L56.7652 19.1746L56.7585 19.1704C56.504 19.0154 56.1618 18.883 55.7777 18.7622C55.3906 18.6404 54.9448 18.5253 54.4754 18.4097C54.319 18.3711 54.1599 18.3325 53.9992 18.2934C53.189 18.0966 52.337 17.8897 51.5717 17.6331C50.6447 17.3224 49.9029 16.9562 49.5198 16.4953C49.3351 16.2732 49.2386 16.0345 49.2388 15.7662C49.2391 15.5059 49.3306 15.1932 49.565 14.8171C52.5808 13.2735 54.976 10.9899 57.3292 8.71802C57.3829 8.66614 57.4366 8.61427 57.4903 8.5624C59.8124 6.31988 62.106 4.1049 64.9538 2.56405L64.9568 2.56236C71.1466 -0.898276 76.4673 -0.198397 80.5063 2.8361C84.5648 5.88524 87.3628 11.3183 88.41 17.3749L88.412 17.3866L88.4152 17.3981C88.5147 17.7632 88.3507 18.0838 88.1363 18.2169C88.0323 18.2815 87.9238 18.2987 87.8234 18.27C87.7273 18.2425 87.6064 18.1635 87.4923 17.975C87.4743 17.9094 87.4563 17.8443 87.4385 17.7796C87.236 17.044 87.0484 16.3626 86.8135 15.6575L86.8117 15.6527C86.6721 15.261 86.5334 14.864 86.3936 14.4638C85.2308 11.1345 83.9903 7.58259 81.453 5.04533L81.4443 5.03664L81.4348 5.02884C78.0269 2.23262 73.2081 1.60073 69.0967 2.78783L69.0871 2.79059L69.0778 2.79409C65.4496 4.16186 62.3254 6.41231 59.2929 8.75713C58.8281 9.11646 58.3657 9.47787 57.904 9.83873C55.3988 11.7967 52.9139 13.7387 50.1908 15.2478L49.8816 14.8807V15.4172V15.5656V15.5657V15.5657V15.5657V15.5658V15.5658V15.5659V15.5659V15.5659V15.566V15.566V15.5661V15.5661V15.5661V15.5662V15.5662V15.5663V15.5664V15.5664V15.5664V15.5665V15.5665V15.5666V15.5666V15.5666V15.5667V15.5667V15.5667V15.5668V15.5669V15.5669V15.567V15.567V15.567V15.5671V15.5671V15.5672V15.5672V15.5673V15.5673V15.5674V15.5674V15.5675V15.5675V15.5676V15.5676V15.5677V15.5678V15.5678V15.5679V15.5679V15.5679V15.568V15.568V15.568V15.5681V15.5681V15.5682V15.5682V15.5682V15.5683V15.5683V15.5684V15.5684V15.5685V15.5685V15.5685V15.5686V15.5686V15.5687V15.5687V15.5687V15.5688V15.5688V15.5689V15.5689V15.5689V15.569V15.569V15.569V15.5691V15.5691V15.5692V15.5692V15.5693V15.5693V15.5694V15.5694V15.5695V15.5695V15.5696V15.5696V15.5697V15.5697V15.5698V15.5698V15.5699V15.5699V15.57V15.57V15.5701V15.5701V15.5702V15.5702V15.5703V15.5703V15.5704V15.5704V15.5705V15.5705V15.5706V15.5706V15.5707V15.5707V15.5708V15.5708V15.5709V15.5709V15.571V15.571V15.5711V15.5712V15.5712V15.5713V15.5713V15.5714V15.5714V15.5715V15.5716V15.5716V15.5717V15.5717V15.5718V15.5719V15.5719V15.572V15.572V15.5721V15.5722V15.5722V15.5723V15.5724V15.5724V15.5724V15.5725V15.5725V15.5726V15.5727V15.5727V15.5728V15.5729V15.5729V15.573V15.5731V15.5731V15.5732V15.5733V15.5734V15.5734V15.5735V15.5736V15.5736V15.5737V15.5738V15.5738V15.5739V15.5739V15.574V15.5741V15.5741V15.5742V15.5743V15.5744V15.5744V15.5744V15.5745V15.5746V15.5747V15.5748V15.5748V15.5748V15.5749V15.575V15.5751V15.5751V15.5752V15.5752V15.5753V15.5754V15.5754V15.5755V15.5756V15.5756V15.5757V15.5757V15.5758V15.5759V15.5759V15.576V15.5761V15.5761V15.5762V15.5762V15.5763V15.5764V15.5765V15.5765V15.5766V15.5767V15.5768V15.5768V15.5768V15.5769V15.577V15.5771V15.5771V15.5772V15.5773V15.5773V15.5774V15.5775V15.5776V15.5776V15.5777V15.5777V15.5778V15.5779V15.578V15.5781V15.5781V15.5782V15.5782V15.5783V15.5783V15.5784V15.5785V15.5786V15.5787V15.5788V15.5789V15.579V15.579V15.5791V15.5791V15.5792V15.5792V15.5793V15.5793V15.5794V15.5794V15.5795V15.5795V15.5796V15.5797V15.5798V15.5799V15.58V15.5801V15.5801V15.5802V15.5802V15.5803V15.5804V15.5804V15.5805V15.5805V15.5806V15.5806V15.5807V15.5807V15.5808V15.5808V15.5809V15.5809V15.581V15.5812V15.5813V15.5814V15.5815V15.5815V15.5816V15.5816V15.5816V15.5817V15.5818V15.5819V15.582V15.5821V15.5821V15.5822V15.5822V15.5823V15.5824V15.5825V15.5825V15.5826V15.5826V15.5827V15.5828V15.5829V15.5829V15.583V15.583V15.5831V15.5832V15.5832V15.5833V15.5834V15.5835V15.5836V15.5836V15.5837V15.5837V15.5838V15.5839V15.5839V15.584V15.5841V15.5841V15.5842V15.5842V15.5843V15.5844V15.5844V15.5845V15.5846V15.5846V15.5846V15.5847V15.5848V15.5849V15.585V15.585V15.585V15.5851V15.5852V15.5853V15.5854V15.5854V15.5854V15.5855V15.5856V15.5857V15.5857V15.5858V15.5859V15.5859V15.5859V15.586V15.5861V15.5862V15.5862V15.5863V15.5864V15.5865V15.5865V15.5866V15.5867V15.5867V15.5868V15.5869V15.5869V15.587V15.5871V15.5871V15.5872V15.5873V15.5873V15.5874V15.5874V15.5874V15.5875V15.5876V15.5876V15.5877V15.5878V15.5878V15.5879V15.5879V15.588V15.5881V15.5881V15.5882V15.5883V15.5883V15.5884V15.5884V15.5885V15.5885V15.5886V15.5886V15.5887V15.5888V15.5888V15.5888V15.5889V15.589V15.589V15.5891V15.5891V15.5892V15.5892V15.5893V15.5893V15.5894V15.5894V15.5895V15.5895V15.5896V15.5896V15.5897V15.5897V15.5898V15.5898V15.5899V15.5899V15.59V15.59V15.5901V15.5901V15.5901V15.5902V15.5903V15.5903V15.5904V15.5904V15.5905V15.5905V15.5906V15.5906V15.5907V15.5907V15.5907V15.5908V15.5908V15.5909V15.5909V15.5909V15.591V15.591V15.5911V15.5911V15.5911V15.5912V15.5912V15.5912V15.5913V15.5913V15.5914V15.5914V15.5915V15.5915V15.5915V15.5916V15.5916V15.5917V15.5917V15.5918V15.5918V15.5918V15.5919V15.5919V15.5919V15.592V15.592V15.5921V15.5921V15.5922V15.5922V15.5923V15.5923V15.5924V15.5924V15.5925V15.5925V15.5926V15.5926V15.5927V15.5928V15.5928V15.5929V15.5929V15.5929V15.593V15.593V15.5931V15.5931V15.5931V15.5932V15.5932V15.5933V15.5933V15.5934V15.5934V15.5934V15.5935V15.5935V15.5936V15.5936V15.5936V15.5937V15.5937V15.5938V15.5938V15.5939V15.5939V15.5939V15.594V15.594V15.5941V15.5941V15.5941H50.0978L49.9404 15.7267C50.4434 16.324 51.134 16.627 51.8299 16.8248C52.1784 16.9239 52.5361 16.9986 52.8783 17.0688L52.9356 17.0805C53.2601 17.147 53.5684 17.2102 53.8556 17.2886L53.8739 17.2936L53.8928 17.2957C55.8259 17.5182 57.9545 18.4103 59.4467 19.7951C60.9297 21.1715 61.7682 23.0146 61.2055 25.1777C60.1917 27.8473 58.5658 30.2709 56.8754 32.705C56.7466 32.8905 56.6175 33.076 56.4882 33.2617C54.9257 35.5059 53.3455 37.7754 52.2167 40.2424C49.2102 45.5781 48.1642 51.4838 47.1337 57.3016C47.1023 57.4788 47.071 57.6559 47.0396 57.8329C45.9736 63.8403 44.8609 69.7334 41.5998 74.9005L41.3308 75.3266L41.8328 75.283C42.4049 75.2332 42.9637 75.059 43.4852 74.8965C43.5916 74.8633 43.6964 74.8306 43.7995 74.7996C44.4068 74.6167 44.964 74.4859 45.5144 74.5614C46.2518 75.0219 46.4565 75.8577 46.2426 77.0036C46.0248 78.1696 45.3824 79.5725 44.555 80.9954C42.9034 83.8352 40.5651 86.6699 39.6326 87.6872C37.5281 89.9753 35.0675 91.8288 32.5695 93.6712C32.4256 93.7773 32.2816 93.8834 32.1320 93.9895C29.786 95.7217 27.4177 97.4662 25.3349 99.5625L24.8164 100.084L25.5455 99.9865C33.6846 98.8936 41.4703 93.7502 45.8114 86.8802C45.9922 86.6022 46.2082 86.3187 46.4578 86.1283C46.6963 85.9465 46.9476 85.8617 47.2289 85.9282C47.5856 86.0907 47.767 86.366 47.8386 86.7338C47.9145 87.1232 47.8641 87.6101 47.7403 88.1456C47.6173 88.6773 47.4285 89.2308 47.2471 89.7473C47.2291 89.7985 47.2112 89.8495 47.1933 89.9001C47.0366 90.3451 46.8886 90.7649 46.8135 91.0931C45.4839 94.9349 43.3908 98.6129 41.0386 101.872L41.3553 102.241C47.1783 99.2576 52.2573 94.2811 53.7922 87.7233C53.9599 87.1956 54.2065 86.7335 54.6512 86.5935C55.0127 86.5682 55.2453 86.6575 55.4017 86.8025C55.5685 86.9571 55.6853 87.2087 55.7421 87.5691C55.8566 88.2957 55.708 89.3372 55.4309 90.4796C55.1559 91.613 54.7637 92.8105 54.4166 93.8354C54.3603 94.0017 54.3049 94.1641 54.2512 94.3214C53.9788 95.1204 53.7513 95.7874 53.6764 96.1556L53.5833 96.6133L54.0158 96.4369C58.4072 94.6457 61.9163 91.1003 64.6626 87.4675C64.9512 87.0962 65.2245 86.677 65.4959 86.2606C65.606 86.0918 65.7157 85.9234 65.826 85.7589C66.2121 85.1834 66.6145 84.6397 67.0973 84.2075C67.3632 84.0298 67.5747 83.999 67.7320 84.0314C67.9071 84.0651 68.0679 84.1763 68.2085 84.3607C68.4957 84.7320 68.6398 85.3464 68.5762 85.8292L68.4665 86.6632L69.0139 86.0246C69.5381 85.413 70.0927 84.597 70.4174 83.9181L70.4177 83.9175C71.4856 81.6693 72.9992 79.7167 74.6664 77.858C75.4876 76.9424 76.3437 76.0521 77.2012 75.1603L77.2401 75.1199C78.1092 74.2161 78.9792 73.3104 79.8088 72.3808C85.6338 66.0701 90.7861 58.8327 93.5938 50.6684C94.7926 47.3289 96.1967 42.8117 96.6414 38.4042C97.0852 34.0051 96.5794 29.6533 93.8843 26.7092L93.8699 26.6934L93.853 26.6804C89.5159 23.3217 84.7048 23.9572 80.5615 26.4027C76.4297 28.8414 72.923 33.0959 71.108 37.0808C68.3004 42.1833 66.7847 47.681 65.899 53.3372C65.5243 55.4612 65.3063 57.8023 65.0831 60.2005C65.0505 60.5505 65.0178 60.9017 64.9845 61.2537C64.7222 64.0239 64.4214 66.8438 63.8391 69.5023C62.6749 74.8174 60.3975 79.4362 55.1086 81.6983C53.9936 82.1377 52.9128 81.7882 52.1172 81.0292C51.3157 80.2646 50.8293 79.1045 50.9222 77.9896L50.9223 77.9896L50.9227 77.982C50.9453 77.5516 51.2542 77.2215 51.6703 77.2215C51.9325 77.2215 52.1286 77.3486 52.2553 77.5427C52.386 77.743 52.4393 78.0123 52.3932 78.2661L52.3861 78.3048L52.3913 78.3438C52.5137 79.2615 53.0305 80.1759 53.7389 80.7302L53.8269 80.7991L53.9369 80.7795C57.8261 80.0844 60.121 76.5871 61.5058 72.5795C62.8952 68.5585 63.4026 63.9296 63.6593 60.8071L63.6602 60.7961L63.6601 60.7851C63.6176 53.6715 65.4183 45.4061 69.0882 38.4134C72.7575 31.4218 78.2799 25.7296 85.6684 23.7011C89.3387 22.8601 92.0694 23.4268 94.0542 24.8565C96.047 26.292 97.3271 28.6258 98.031 31.3919C99.4403 36.9304 98.5095 44.0907 96.5185 48.8071L96.512 48.8225L96.5076 48.8387C93.6451 59.3534 87.2079 68.2933 79.7006 76.028L79.6969 76.032C79.5559 76.1837 79.4149 76.3354 79.2738 76.4871C76.7985 79.1493 74.327 81.8073 72.0843 84.6702C71.7735 84.9832 71.4905 85.3624 71.2176 85.7423C71.1667 85.8132 71.1161 85.8841 71.0657 85.9548C70.839 86.2725 70.6157 86.5856 70.3768 86.8743C69.7975 87.5742 69.1774 88.0668 68.3357 88.0626C67.7238 87.941 67.3644 87.281 67.3644 86.5742L66.8891 86.4659C65.8456 88.6376 64.4625 90.6705 62.88 92.479L62.7792 92.5942L62.8361 92.7364C62.8965 92.8874 62.9124 92.9472 62.888 93.0204ZM39.3256 122.42L39.4378 122.583L39.6223 122.511C41.801 121.663 43.5002 120.103 45.0068 118.352C45.7604 117.477 46.47 116.548 47.1675 115.634L47.2089 115.579C47.8937 114.681 48.5673 113.798 49.2672 112.98L49.2675 112.981L49.2748 112.971C53.6387 107.352 57.7825 101.438 60.8996 95.0036L60.5128 94.7041C59.016 95.9749 57.3887 97.0956 55.5447 97.8229C54.579 98.1528 53.4397 98.2209 52.7076 97.9126C52.3506 97.7623 52.1087 97.5315 52.0064 97.212C51.9017 96.8852 51.9272 96.417 52.2128 95.7642L51.7765 95.5242C50.9685 96.7223 48.9936 98.8416 46.7438 100.663C45.6207 101.572 44.4368 102.4 43.3037 103C42.1658 103.603 41.1029 103.962 40.2155 103.962C39.7544 103.962 39.3522 103.863 39.0024 103.671C38.6942 103.335 38.7487 102.784 39.0326 102.32L39.0326 102.32L39.0357 102.314C39.3159 101.83 39.6033 101.343 39.8921 100.854C40.6829 99.5154 41.4838 98.1596 42.1758 96.7761C42.8608 95.4916 43.5171 94.1791 44.1444 92.8673C44.316 92.5242 44.4871 92.1535 44.6562 91.787L44.6597 91.7795L44.2611 91.4929C40.7451 94.8105 36.5269 97.7527 31.9494 99.4763L31.8027 99.5315L31.7885 99.6876C31.78 99.7821 31.7292 99.8968 31.6399 100.032C31.5792 100.125 31.5153 100.206 31.4506 100.289C31.42 100.328 31.3893 100.367 31.3585 100.408C24.9409 107.818 17.1849 113.757 9.1285 119.308L9.12838 119.308L9.12035 119.314C8.22320 119.986 7.20378 120.546 6.16364 121.116C5.90194 121.259 5.63896 121.404 5.37635 121.55C4.08147 122.275 2.80381 123.06 1.82004 124.132L1.68468 124.28L1.799 124.444C2.30543 125.172 3.03188 125.488 3.78857 125.619C4.43257 125.732 5.12297 125.714 5.73947 125.698C5.83737 125.695 5.9334 125.693 6.02709 125.691L6.0271 125.691L6.0398 125.69C8.21371 125.535 10.3436 125.102 12.4444 124.676L12.5578 124.653C14.6846 124.221 16.7816 123.801 18.896 123.67C19.3461 123.829 19.5611 124.072 19.6602 124.35C19.769 124.656 19.7527 125.044 19.6577 125.496C19.5771 125.88 19.447 126.281 19.3163 126.684C19.2938 126.753 19.2713 126.822 19.249 126.891C19.1014 127.35 18.9605 127.819 18.9369 128.219L18.93 128.336L19.0155 128.416C19.2978 128.68 19.6639 128.792 20.0239 128.838C20.3815 128.883 20.764 128.868 21.101 128.854C21.2021 128.854 21.3028 128.85 21.3946 128.847C21.4345 128.845 21.4727 128.844 21.5086 128.843C21.6344 128.839 21.7398 128.84 21.8339 128.852L21.8753 128.857L21.9161 128.848C27.6727 127.646 33.3098 125.356 38.3994 122.525L38.4251 122.511L38.4468 122.491C38.5859 122.363 38.7729 122.271 38.9422 122.252C39.0992 122.235 39.2299 122.28 39.3256 122.42Z" fill="white" stroke="black" stroke-width="0.5"/>
<path d="M125.635 20.6584L125.61 20.6814C125.072 21.1628 124.507 21.4818 123.893 21.8282C123.862 21.8457 123.831 21.8633 123.799 21.881L123.792 21.8852L123.792 21.8851C117.798 25.0088 113.941 30.7207 113.068 37.4247L113.065 37.4486L113.057 37.4715C112.948 37.7981 112.789 38.529 112.841 39.0487L112.848 39.1265L112.811 39.1948C110.185 43.9318 107.332 48.4964 104.454 53.0554L104.012 52.8261C104.066 52.6971 104.119 52.5679 104.173 52.4385C107.355 44.7839 110.814 36.4594 109.274 28.1474C109.048 27.6438 108.332 27.702 108.189 28.2514L108.177 28.2967L108.15 28.3347C102.013 36.8584 97.5644 48.2847 100.891 58.6012L100.927 58.7135L100.863 58.8128C100.152 59.9225 99.4402 61.061 98.7569 62.1713L98.7542 62.1757L98.7541 62.1757C97.9298 63.4548 97.1336 64.7628 96.3355 66.074L95.8742 65.9103C96.0941 64.2984 96.1829 62.6614 96.2723 61.0155C96.321 60.1199 96.3697 59.2217 96.4398 58.3234C96.319 57.7517 96.142 57.46 95.97 57.3317C95.8162 57.217 95.6156 57.1982 95.3271 57.3235C95.0322 57.4516 94.687 57.7161 94.309 58.0957C93.9343 58.472 93.5414 58.9472 93.1495 59.4782C92.366 60.54 91.5984 61.8088 91.0016 62.9178C90.7034 63.472 90.4491 63.9839 90.2576 64.4079C90.0637 64.837 89.9408 65.1615 89.8969 65.3464L89.8917 65.3685L89.8825 65.3893C88.6691 68.1471 89.0766 71.5794 90.7315 74.0769C90.7386 74.0796 90.752 74.0843 90.7751 74.0904C90.799 74.0966 90.849 74.1085 90.8925 74.123C90.9402 74.1389 90.9997 74.1636 91.0574 74.2069L91.241 74.3446L91.1195 74.5392C89.3202 77.424 87.3788 80.2216 85.382 82.9601L84.948 82.7197C85.8724 80.4157 86.7155 77.8007 86.8937 75.9044C86.9838 74.945 86.8965 74.2325 86.6268 73.8273C86.4991 73.6355 86.3295 73.5107 86.1023 73.4555C85.8812 73.4017 85.5888 73.4099 85.2073 73.5152C83.3672 75.6745 81.8265 78.1929 80.3304 80.6488C79.2813 83.0611 79.2469 85.5887 79.2185 88.3448C79.2777 88.6449 79.2426 89.0162 79.1985 89.3691C79.187 89.4606 79.1748 89.5518 79.1627 89.6426C79.124 89.932 79.086 90.2164 79.0756 90.4875L79.0721 90.5786L79.0108 90.646C75.0443 95.012 70.85 99.1776 66.4853 103.171L66.093 102.875C66.0894 102.882 66.0896 102.884 66.0917 102.876C66.0939 102.868 66.0961 102.858 66.0999 102.838C66.1032 102.822 66.1082 102.797 66.1148 102.771C66.1195 102.753 66.126 102.732 66.1354 102.708C66.929 99.3319 67.5495 95.9379 67.6624 92.436L67.6624 92.4357C67.6769 92.0015 67.6952 91.2553 67.5494 90.7019C67.4755 90.4214 67.3722 90.2427 67.2549 90.1597C67.1685 90.0985 67.0295 90.0587 66.7769 90.161C66.1223 91.3093 65.8635 92.6569 65.7248 94.0747C65.6678 94.6576 65.6315 95.2462 65.5952 95.8355C65.5865 95.9769 65.5778 96.1184 65.5688 96.2599C65.5225 96.9866 65.4687 97.7102 65.3676 98.404C65.3274 98.7348 65.2878 99.0711 65.2478 99.4115C65.0336 101.231 64.8058 103.167 64.3948 104.98L64.3771 105.058L64.3173 105.111C60.9249 108.133 57.4746 111.127 53.9953 114.008L53.993 114.01C52.7787 114.99 51.5157 115.919 50.2576 116.844C49.9011 117.106 49.545 117.368 49.1906 117.631C47.5819 118.823 46.0023 120.035 44.5452 121.379L44.5157 121.406L44.4792 121.423C44.4099 121.454 44.3446 121.534 44.3215 121.648C44.2994 121.756 44.3231 121.861 44.3864 121.935C44.4402 121.987 44.5003 122.015 44.5592 122.024C45.8313 121.461 47.0272 120.653 48.2326 119.838C48.4674 119.679 48.7025 119.52 48.9386 119.363C58.5178 112.939 66.7653 104.835 74.8579 96.6282L74.8622 96.6238L74.8622 96.6239C76.3917 95.1463 77.8031 93.5497 79.2119 91.956C79.3437 91.8069 79.4755 91.6579 79.6073 91.5089L79.6727 91.4351L79.7708 91.4258C80.2008 91.3848 80.4129 91.052 80.582 90.5166L80.6004 90.4583L80.6436 90.4151L80.7861 90.2726L80.8502 90.2085L80.9406 90.2004C81.3007 90.1682 81.6618 90.1363 82.0237 90.1044C90.6567 89.3432 99.746 88.5418 105.851 81.7349C105.851 81.7346 105.852 81.7344 105.852 81.7341L106.038 81.901C106.139 81.7856 106.27 81.6462 106.418 81.4883C107.475 80.3597 109.415 78.2883 107.89 77.3134L125.635 20.6584ZM125.635 20.6584L125.654 20.6293C125.789 20.4171 126.092 20.3357 126.302 20.4752C126.44 20.5675 126.499 20.6929 126.52 20.8499C126.54 20.9935 126.527 21.1403 126.513 21.2953C126.511 21.3129 126.509 21.3306 126.508 21.3484C126.174 22.1777 125.782 23.0066 125.395 23.8265C125.326 23.9726 125.257 24.1184 125.188 24.2639L125.186 24.2678C124.908 24.8863 124.635 25.5093 124.362 26.1327C123.441 28.2367 122.517 30.345 121.383 32.2982C119.918 34.8223 118.114 37.0638 115.542 38.6589C115.399 38.7395 115.262 38.8214 115.129 38.9011C114.812 39.0907 114.517 39.2672 114.214 39.3809L114.142 39.4077L114.098 39.4697C113.949 39.6788 113.829 39.887 113.74 40.0659C111.093 44.6192 108.332 49.0879 105.541 53.559L105.901 53.8926C109.515 51.2313 114.232 49.9283 118.624 49.1596C118.791 49.2057 118.857 49.2793 118.887 49.3431C118.926 49.4254 118.935 49.5508 118.895 49.7239C118.814 50.0714 118.569 50.4721 118.378 50.7169L118.371 50.7269L118.364 50.7377C115.915 54.6502 112.181 57.5637 107.645 58.4036L107.644 58.4037C106.875 58.5486 106.116 58.7801 105.376 59.0055C105.155 59.073 104.935 59.1399 104.717 59.2038C103.766 59.4834 102.843 59.7089 101.914 59.7102C101.906 59.7062 101.899 59.7028 101.891 59.6999C101.87 59.6918 101.851 59.6873 101.835 59.6849C101.819 59.6824 101.804 59.6817 101.792 59.6817H101.656L101.582 59.7968C100.997 60.7094 100.42 61.6289 99.8432 62.5473L99.8425 62.5485C99.2654 63.4676 98.6889 64.3856 98.1055 65.2963L98.1055 65.2962L98.1027 65.3008C97.7905 65.8116 97.471 66.3157 97.1503 66.8218L97.1502 66.8219C96.8299 67.3273 96.5082 67.8348 96.1936 68.3497L96.5456 68.6881C97.846 67.8211 99.306 67.1951 100.83 66.6421C101.531 66.3878 102.243 66.1499 102.958 65.9108C103.021 65.8899 103.083 65.869 103.146 65.8481C103.92 65.5891 104.698 65.327 105.462 65.0416C106.052 64.8678 106.629 64.6831 107.199 64.5004C108.039 64.2314 108.866 63.9666 109.703 63.7472C110.243 63.8107 110.601 63.9318 110.826 64.0784C111.047 64.2225 111.139 64.3904 111.16 64.5758C111.183 64.7752 111.125 65.0258 110.978 65.3244C110.833 65.6202 110.609 65.942 110.331 66.2752C109.21 67.6153 107.305 69.0147 106.514 69.4588L106.506 69.4635L106.498 69.4688C102.207 72.3294 97.242 74.109 92.2341 75.1343C92.2151 75.1191 92.1916 75.104 92.163 75.0919C92.126 75.0764 92.0868 75.0688 92.0472 75.0688H91.9117L91.8377 75.1824C89.8747 78.198 87.7974 81.1574 85.6625 84.061L85.9976 84.4203C88.7681 82.6676 91.8489 81.3394 94.9843 80.5767L94.9843 80.5769L94.9921 80.5747C96.4932 80.1577 97.998 79.9576 99.5126 79.7562C99.7885 79.7195 100.065 79.6828 100.341 79.6447C102.123 79.3993 103.911 79.0981 105.661 78.3776C106.001 78.289 106.323 78.1059 106.609 77.9439C106.687 77.8997 106.762 77.8571 106.833 77.8184C107.178 77.633 107.478 77.5153 107.799 77.5529L125.635 20.6584ZM101.837 59.9602H101.906C103.101 59.9602 104.273 59.6029 105.458 59.242C106.195 59.0174 106.937 58.7915 107.691 58.6494C112.307 57.7946 116.097 54.8311 118.576 50.8704L101.837 59.9602ZM101.837 59.9602L101.821 59.9499L101.806 59.9407M101.837 59.9602L101.806 59.9407M101.806 59.9407C101.806 59.9357 101.803 59.9317 101.792 59.9317C101.748 60.0008 101.704 60.0699 101.66 60.139C101.656 60.1367 101.653 60.1341 101.649 60.1315C101.629 60.1153 101.611 60.0961 101.597 60.0749C101.569 60.0333 101.561 59.9937 101.559 59.974C101.557 59.9636 101.557 59.9555 101.557 59.9514M101.806 59.9407L101.557 59.9462C101.557 59.9446 101.557 59.9477 101.557 59.9514M101.557 59.9514L101.557 59.9568C101.557 59.9626 101.557 59.9725 101.559 59.9844C101.562 60.0076 101.571 60.0502 101.6 60.0945C101.615 60.1155 101.632 60.1347 101.652 60.1512M101.557 59.9514L101.652 60.1512M101.652 60.1512C101.116 60.9909 100.585 61.8362 100.054 62.6815C99.4771 63.6004 98.9001 64.5193 98.316 65.4311C98.0026 65.944 97.682 66.4498 97.3615 66.9556C97.1434 67.2997 96.9253 67.6438 96.7095 67.9901C96.5607 68.0812 96.4136 68.1751 96.2682 68.272L96.4069 68.48L96.6202 68.6104C96.7097 68.464 96.7998 68.3181 96.8903 68.1726C98.7139 67.066 100.796 66.3701 102.879 65.6737C103.719 65.393 104.559 65.1121 105.383 64.8042C105.963 64.6337 106.538 64.4495 107.111 64.2662L101.652 60.1512ZM44.3207 121.195C46.1678 119.542 48.1405 118.091 50.1122 116.641C51.3695 115.716 52.6265 114.791 53.8359 113.815C57.3123 110.937 60.7602 107.945 64.151 104.925C64.5588 103.126 64.7848 101.206 64.9991 99.3855C65.0393 99.0433 65.0792 98.7046 65.1198 98.3709C65.2388 97.5551 65.2919 96.6936 65.3456 95.822L44.3207 121.195ZM44.3207 121.195C44.0623 121.338 43.9483 121.822 44.2048 122.107L44.3207 121.195ZM101.143 57.2026H101.172H101.393H101.394H101.394H101.394H101.394H101.394H101.394H101.395H101.395H101.395H101.395H101.395H101.395H101.396H101.396H101.396H101.396H101.396H101.396H101.397H101.397H101.397H101.397H101.397H101.397H101.397H101.398H101.398H101.398H101.398H101.398H101.398H101.398H101.399H101.399H101.399H101.399H101.399H101.399H101.399H101.4H101.4H101.4H101.4H101.4H101.4H101.4H101.401H101.401H101.401H101.401H101.401H101.401H101.401H101.402H101.402H101.402H101.402H101.402H101.402H101.402H101.402H101.403H101.403H101.403H101.403H101.403H101.403H101.403H101.403H101.404H101.404H101.404H101.404H101.404H101.404H101.404H101.404H101.405H101.405H101.405H101.405H101.405H101.405H101.405H101.405H101.406H101.406H101.406H101.406H101.406H101.406H101.406H101.406H101.406H101.407H101.407H101.407H101.407H101.407H101.407H101.407H101.407H101.407H101.408H101.408H101.408H101.408H101.408H101.408H101.408H101.408H101.408H101.408H101.409H101.409H101.409H101.409H101.409H101.409H101.409H101.409H101.409H101.409H101.41H101.41H101.41H101.41H101.41H101.41H101.41H101.41H101.41H101.41H101.41H101.411H101.411H101.411H101.411H101.411H101.411H101.411H101.411H101.411H101.411H101.411H101.412H101.412H101.412H101.412H101.412H101.412H101.412H101.412H101.412H101.412H101.412H101.412H101.413H101.413H101.413H101.413H101.413H101.413H101.413H101.413H101.413H101.413H101.413H101.413H101.413H101.414H101.414H101.414H101.414H101.414H101.414H101.414H101.414H101.414H101.414H101.414H101.414H101.414H101.414H101.415H101.415H101.415H101.415H101.415H101.415H101.415H101.415H101.415H101.415H101.415H101.415H101.415H101.415H101.415H101.415H101.416H101.416H101.416H101.416H101.416H101.416H101.416H101.416H101.416H101.416H101.416H101.416H101.416H101.416H101.416H101.416H101.416H101.417H101.417H101.417H101.417H101.417H101.417H101.417H101.417H101.417H101.417H101.417H101.417H101.417H101.417H101.417H101.417H101.417H101.417H101.417H101.418H101.418H101.418H101.418H101.418H101.418H101.418H101.418H101.418H101.418H101.418H101.418H101.418H101.418H101.418H101.418H101.418H101.418H101.418H101.418H101.418H101.418H101.418H101.419H101.419H101.419H101.419H101.419H101.419H101.419H101.419H101.419H101.419H101.419H101.419H101.419H101.419H101.419H101.419H101.419H101.419H101.419H101.419H101.419H101.419H101.419H101.419H101.419H101.419H101.419H101.42H101.42H101.42H101.42H101.42H101.42H101.42H101.42H101.42H101.42H101.42H101.42H101.42H101.42H101.42H101.42H101.42H101.42H101.42H101.42H101.42H101.42H101.42H101.421H101.421H101.421H101.421H101.421H101.421H101.421H101.421H101.421H101.421H101.421H101.421H101.421H101.421H101.421H101.421H101.421H101.421H101.421H101.421H101.421H101.421H101.421H101.421H101.421H101.421H101.421H101.422H101.422H101.422H101.422H101.422H101.422H101.422H101.422H101.422H101.422H101.422H101.422H101.422H101.422V57.4526H101.643H101.672C101.672 57.4774 101.669 57.5033 101.661 57.5294C101.654 57.5557 101.644 57.5785 101.632 57.598C101.621 57.617 101.609 57.6314 101.6 57.641C101.593 57.6497 101.585 57.6569 101.585 57.6578C101.582 57.6602 101.585 57.6576 101.589 57.6535L101.59 57.6519C101.595 57.6461 101.604 57.6357 101.612 57.6212C101.621 57.6061 101.63 57.5882 101.635 57.5675C101.641 57.5469 101.643 57.5273 101.643 57.5096H101.422V57.7026H101.422H101.422H101.422H101.422H101.422H101.422H101.422H101.422H101.422H101.422H101.422H101.422H101.422H101.421H101.421H101.421H101.421H101.421H101.421H101.421H101.421H101.421H101.421H101.421H101.421H101.421H101.421H101.421H101.421H101.421H101.421H101.421H101.421H101.421H101.421H101.421H101.421H101.421H101.421H101.421H101.42H101.42H101.42H101.42H101.42H101.42H101.42H101.42H101.42H101.42H101.42H101.42H101.42H101.42H101.42H101.42H101.42H101.42H101.42H101.42H101.42H101.42H101.42H101.419H101.419H101.419H101.419H101.419H101.419H101.419H101.419H101.419H101.419H101.419H101.419H101.419H101.419H101.419H101.419H101.419H101.419H101.419H101.419H101.419H101.419H101.419H101.419H101.419H101.419H101.419H101.418H101.418H101.418H101.418H101.418H101.418H101.418H101.418H101.418H101.418H101.418H101.418H101.418H101.418H101.418H101.418H101.418H101.418H101.418H101.418H101.418H101.418H101.418H101.417H101.417H101.417H101.417H101.417H101.417H101.417H101.417H101.417H101.417H101.417H101.417H101.417H101.417H101.417H101.417H101.417H101.417H101.417H101.416H101.416H101.416H101.416H101.416H101.416H101.416H101.416H101.416H101.416H101.416H101.416H101.416H101.416H101.416H101.416H101.416H101.415H101.415H101.415H101.415H101.415H101.415H101.415H101.415H101.415H101.415H101.415H101.415H101.415H101.415H101.415H101.415H101.414H101.414H101.414H101.414H101.414H101.414H101.414H101.414H101.414H101.414H101.414H101.414H101.414H101.414H101.413H101.413H101.413H101.413H101.413H101.413H101.413H101.413H101.413H101.413H101.413H101.413H101.413H101.412H101.412H101.412H101.412H101.412H101.412H101.412H101.412H101.412H101.412H101.412H101.412H101.411H101.411H101.411H101.411H101.411H101.411H101.411H101.411H101.411H101.411H101.411H101.41H101.41H101.41H101.41H101.41H101.41H101.41H101.41H101.41H101.41H101.41H101.409H101.409H101.409H101.409H101.409H101.409H101.409H101.409H101.409H101.409H101.408H101.408H101.408H101.408H101.408H101.408H101.408H101.408H101.408H101.408H101.407H101.407H101.407H101.407H101.407H101.407H101.407H101.407H101.407H101.406H101.406H101.406H101.406H101.406H101.406H101.406H101.406H101.406H101.405H101.405H101.405H101.405H101.405H101.405H101.405H101.405H101.404H101.404H101.404H101.404H101.404H101.404H101.404H101.404H101.403H101.403H101.403H101.403H101.403H101.403H101.403H101.403H101.402H101.402H101.402H101.402H101.402H101.402H101.402H101.402H101.401H101.401H101.401H101.401H101.401H101.401H101.401H101.4H101.4H101.4H101.4H101.4H101.4H101.4H101.399H101.399H101.399H101.399H101.399H101.399H101.399H101.398H101.398H101.398H101.398H101.398H101.398H101.398H101.397H101.397H101.397H101.397H101.397H101.397H101.397H101.396H101.396H101.396H101.396H101.396H101.396H101.395H101.395H101.395H101.395H101.395H101.395H101.394H101.394H101.394H101.394H101.394H101.394H101.393V57.5096H101.143V57.2026ZM101.143 57.2026V57.4526M101.143 57.2026V57.4526M101.143 57.4526V57.4528M101.143 57.4526V57.4528M118.555 49.491L118.218 50.0333L118.555 49.491ZM118.555 49.491L117.939 49.6606M118.555 49.491L117.939 49.6606M117.939 49.6606C112.67 51.1131 107.221 52.8649 103.293 56.9663L103.28 56.9801M117.939 49.6606L103.28 56.9801M102.352 58.3745L102.699 57.8792L102.352 58.3745ZM102.352 58.3745L102.947 58.2687M102.352 58.3745L102.947 58.2687M102.947 58.2687C103.477 58.1746 104.012 58.0875 104.55 58L102.947 58.2687ZM103.28 56.9801L103.269 56.9958M103.28 56.9801L103.269 56.9958M103.269 56.9958C103.165 57.1441 103.069 57.2987 102.978 57.4464L103.269 56.9958ZM114.125 37.8349L114.196 37.2212C114.889 31.2378 118.359 26.3282 123.52 23.2719L124.261 22.8336L123.871 23.6004L114.125 37.8349ZM114.125 37.8349L114.602 37.4433M114.125 37.8349L114.602 37.4433M114.602 37.4433C118.568 34.194 120.83 29.6718 123.034 25.2643L114.602 37.4433ZM101.143 57.4528V57.453M101.143 57.4528V57.453M101.143 57.453V57.4531M101.143 57.453V57.4531M101.143 57.4531V57.4533M101.143 57.4531V57.4533M101.143 57.4533V57.4535M101.143 57.4533V57.4535M101.143 57.4535V57.4536M101.143 57.4535V57.4536M101.143 57.4536V57.4538M101.143 57.4536V57.4538M101.143 57.4538V57.454M101.143 57.4538V57.454M101.143 57.454V57.4541M101.143 57.454V57.4541M101.143 57.4541V57.4543M101.143 57.4541V57.4543M101.143 57.4543V57.4544M101.143 57.4543V57.4544M101.143 57.4544V57.4546M101.143 57.4544V57.4546M101.143 57.4546V57.4548M101.143 57.4546V57.4548M101.143 57.4548V57.4549M101.143 57.4548V57.4549M101.143 57.4549V57.4551M101.143 57.4549V57.4551M101.143 57.4551V57.4552M101.143 57.4551V57.4552M101.143 57.4552V57.4554M101.143 57.4552V57.4554M101.143 57.4554V57.4555M101.143 57.4554V57.4555M101.143 57.4555V57.4557M101.143 57.4555V57.4557M101.143 57.4557V57.4558M101.143 57.4557V57.4558M101.143 57.4558V57.456M101.143 57.4558V57.456M101.143 57.456V57.4562M101.143 57.456V57.4562M101.143 57.4562V57.4563M101.143 57.4562V57.4563M101.143 57.4563V57.4565M101.143 57.4563V57.4565M101.143 57.4565V57.4566M101.143 57.4565V57.4566M101.143 57.4566V57.4568M101.143 57.4566V57.4568M101.143 57.4568V57.4569M101.143 57.4568V57.4569M101.143 57.4569V57.4571M101.143 57.4569V57.4571M101.143 57.4571V57.4572M101.143 57.4571V57.4572M101.143 57.4572V57.4574M101.143 57.4572V57.4574M101.143 57.4574V57.4575M101.143 57.4574V57.4575M101.143 57.4575V57.4577M101.143 57.4575V57.4577M101.143 57.4577V57.4578M101.143 57.4577V57.4578M101.143 57.4578V57.458M101.143 57.4578V57.458M101.143 57.458V57.4581M101.143 57.458V57.4581M101.143 57.4581V57.4582M101.143 57.4581V57.4582M101.143 57.4582V57.4584M101.143 57.4582V57.4584M101.143 57.4584V57.4585M101.143 57.4584V57.4585M101.143 57.4585V57.4587M101.143 57.4585V57.4587M101.143 57.4587V57.4588M101.143 57.4587V57.4588M101.143 57.4588V57.459M101.143 57.4588V57.459M101.143 57.459V57.4591M101.143 57.459V57.4591M101.143 57.4591V57.4592M101.143 57.4591V57.4592M101.143 57.4592V57.4594M101.143 57.4592V57.4594M101.143 57.4594V57.4595M101.143 57.4594V57.4595M101.143 57.4595V57.4597M101.143 57.4595V57.4597M101.143 57.4597V57.4598M101.143 57.4597V57.4598M101.143 57.4598V57.4599M101.143 57.4598V57.4599M101.143 57.4599V57.4601M101.143 57.4599V57.4601M101.143 57.4601V57.4602M101.143 57.4601V57.4602M101.143 57.4602V57.4604M101.143 57.4602V57.4604M101.143 57.4604V57.4605M101.143 57.4604V57.4605M101.143 57.4605V57.4606M101.143 57.4605V57.4606M101.143 57.4606V57.4608M101.143 57.4606V57.4608M101.143 57.4608V57.4609M101.143 57.4608V57.4609M101.143 57.4609V57.461M101.143 57.4609V57.461M101.143 57.461V57.4612M101.143 57.461V57.4612M101.143 57.4612V57.4613M101.143 57.4612V57.4613M101.143 57.4613V57.4614M101.143 57.4613V57.4614M101.143 57.4614V57.4616M101.143 57.4614V57.4616M101.143 57.4616V57.4617M101.143 57.4616V57.4617M101.143 57.4617V57.4618M101.143 57.4617V57.4618M101.143 57.4618V57.462M101.143 57.4618V57.462M101.143 57.462V57.4621M101.143 57.462V57.4621M101.143 57.4621V57.4622M101.143 57.4621V57.4622M101.143 57.4622V57.4624M101.143 57.4622V57.4624M101.143 57.4624V57.4625M101.143 57.4624V57.4625M101.143 57.4625V57.4626M101.143 57.4625V57.4626M101.143 57.4626V57.4627M101.143 57.4626V57.4627M101.143 57.4627V57.4629M101.143 57.4627V57.4629M101.143 57.4629V57.463M101.143 57.4629V57.463M101.143 57.463V57.4631M101.143 57.463V57.4631M101.143 57.4631V57.4633M101.143 57.4631V57.4633M101.143 57.4633V57.4634M101.143 57.4633V57.4634M101.143 57.4634V57.4635M101.143 57.4634V57.4635M101.143 57.4635V57.4636M101.143 57.4635V57.4636M101.143 57.4636V57.4638M101.143 57.4636V57.4638M101.143 57.4638V57.4639M101.143 57.4638V57.4639M101.143 57.4639V57.464M101.143 57.4639V57.464M101.143 57.464V57.4641M101.143 57.464V57.4641M101.143 57.4641V57.4642M101.143 57.4641V57.4642M101.143 57.4642V57.4644M101.143 57.4642V57.4644M101.143 57.4644V57.4645M101.143 57.4644V57.4645M101.143 57.4645V57.4646M101.143 57.4645V57.4646M101.143 57.4646V57.4647M101.143 57.4646V57.4647M101.143 57.4647V57.4649M101.143 57.4647V57.4649M101.143 57.4649V57.465M101.143 57.4649V57.465M101.143 57.465V57.4651M101.143 57.465V57.4651M101.143 57.4651V57.4652M101.143 57.4651V57.4652M101.143 57.4652V57.4653M101.143 57.4652V57.4653M101.143 57.4653V57.4655M101.143 57.4653V57.4655M101.143 57.4655V57.4656M101.143 57.4655V57.4656M101.143 57.4656V57.4657M101.143 57.4656V57.4657M101.143 57.4657V57.4658M101.143 57.4657V57.4658M101.143 57.4658V57.4659M101.143 57.4658V57.4659M101.143 57.4659V57.466M101.143 57.4659V57.466M101.143 57.466V57.4661M101.143 57.466V57.4661M101.143 57.4661V57.4663M101.143 57.4661V57.4663M101.143 57.4663V57.4664M101.143 57.4663V57.4664M101.143 57.4664V57.4665M101.143 57.4664V57.4665M101.143 57.4665V57.4666M101.143 57.4665V57.4666M101.143 57.4666V57.4667M101.143 57.4666V57.4667M101.143 57.4667V57.4668M101.143 57.4667V57.4668M101.143 57.4668V57.4669M101.143 57.4668V57.4669M101.143 57.4669V57.4671M101.143 57.4669V57.4671M101.143 57.4671V57.4672M101.143 57.4671V57.4672M101.143 57.4672V57.4673M101.143 57.4672V57.4673M101.143 57.4673V57.4674M101.143 57.4673V57.4674M101.143 57.4674V57.4675M101.143 57.4674V57.4675M101.143 57.4675V57.4676M101.143 57.4675V57.4676M101.143 57.4676V57.4677M101.143 57.4676V57.4677M101.143 57.4677V57.4678M101.143 57.4677V57.4678M101.143 57.4678V57.4679M101.143 57.4678V57.4679M101.143 57.4679V57.4681M101.143 57.4679V57.4681M101.143 57.4681V57.4682M101.143 57.4681V57.4682M101.143 57.4682V57.4683M101.143 57.4682V57.4683M101.143 57.4683V57.4684M101.143 57.4683V57.4684M101.143 57.4684V57.4685M101.143 57.4684V57.4685M101.143 57.4685V57.4686M101.143 57.4685V57.4686M101.143 57.4686V57.4687M101.143 57.4686V57.4687M101.143 57.4687V57.4688M101.143 57.4687V57.4688M101.143 57.4688V57.4689M101.143 57.4688V57.4689M101.143 57.4689V57.469M101.143 57.4689V57.469M101.143 57.469V57.4691M101.143 57.469V57.4691M101.143 57.4691V57.4692M101.143 57.4691V57.4692M101.143 57.4692V57.4693M101.143 57.4692V57.4693M101.143 57.4693V57.4694M101.143 57.4693V57.4694M101.143 57.4694V57.4696M101.143 57.4694V57.4696M101.143 57.4696V57.4697M101.143 57.4696V57.4697M101.143 57.4697V57.4698M101.143 57.4697V57.4698M101.143 57.4698V57.4699M101.143 57.4698V57.4699M101.143 57.4699V57.47M101.143 57.4699V57.47M101.143 57.47V57.4701M101.143 57.47V57.4701M101.143 57.4701V57.4702M101.143 57.4701V57.4702M101.143 57.4702V57.4703M101.143 57.4702V57.4703M101.143 57.4703V57.4704M101.143 57.4703V57.4704M101.143 57.4704V57.4705M101.143 57.4704V57.4705M101.143 57.4705V57.4706M101.143 57.4705V57.4706M101.143 57.4706V57.4707M101.143 57.4706V57.4707M101.143 57.4707V57.4708M101.143 57.4707V57.4708M101.143 57.4708V57.4709M101.143 57.4708V57.4709M101.143 57.4709V57.471M101.143 57.4709V57.471M101.143 57.471V57.4711M101.143 57.471V57.4711M101.143 57.4711V57.4712M101.143 57.4711V57.4712M101.143 57.4712V57.4713M101.143 57.4712V57.4713M101.143 57.4713V57.4714M101.143 57.4713V57.4714M101.143 57.4714V57.4715M101.143 57.4714V57.4715M101.143 57.4715V57.4716M101.143 57.4715V57.4716M101.143 57.4716V57.4717M101.143 57.4716V57.4717M101.143 57.4717V57.4718M101.143 57.4717V57.4718M101.143 57.4718V57.4719M101.143 57.4718V57.4719M101.143 57.4719V57.472M101.143 57.4719V57.472M101.143 57.472V57.4721M101.143 57.472V57.4721M101.143 57.4721V57.4722M101.143 57.4721V57.4722M101.143 57.4722V57.4723M101.143 57.4722V57.4723M101.143 57.4723V57.4724M101.143 57.4723V57.4724M101.143 57.4724V57.4725M101.143 57.4724V57.4725M101.143 57.4725V57.4725M101.143 57.4725V57.4725M101.143 57.4725V57.4726M101.143 57.4725V57.4726M101.143 57.4726V57.4727M101.143 57.4726V57.4727M101.143 57.4727V57.4728M101.143 57.4727V57.4728M101.143 57.4728V57.4729M101.143 57.4728V57.4729M101.143 57.4729V57.473M101.143 57.4729V57.473M101.143 57.473V57.4731M101.143 57.473V57.4731M101.143 57.4731V57.4732M101.143 57.4731V57.4732M101.143 57.4732V57.4733M101.143 57.4732V57.4733M101.143 57.4733V57.4734M101.143 57.4733V57.4734M101.143 57.4734V57.4735M101.143 57.4734V57.4735M101.143 57.4735V57.4736M101.143 57.4735V57.4736M101.143 57.4736V57.4737M101.143 57.4736V57.4737M101.143 57.4737V57.4738M101.143 57.4737V57.4738M101.143 57.4738V57.4739M101.143 57.4738V57.4739M101.143 57.4739V57.474M101.143 57.4739V57.474M101.143 57.474V57.474M101.143 57.474V57.474M101.143 57.474V57.4741M101.143 57.474V57.4741M101.143 57.4741V57.4742M101.143 57.4741V57.4742M101.143 57.4742V57.4743M101.143 57.4742V57.4743M101.143 57.4743V57.4744M101.143 57.4743V57.4744M101.143 57.4744V57.4745M101.143 57.4744V57.4745M101.143 57.4745V57.4746M101.143 57.4745V57.4746M101.143 57.4746V57.4747M101.143 57.4746V57.4747M101.143 57.4747V57.4748M101.143 57.4747V57.4748M101.143 57.4748V57.4749M101.143 57.4748V57.4749M101.143 57.4749V57.475M101.143 57.4749V57.475M101.143 57.475V57.4751M101.143 57.475V57.4751M101.143 57.4751V57.4751M101.143 57.4751V57.4751M101.143 57.4751V57.4752M101.143 57.4751V57.4752M101.143 57.4752V57.4753M101.143 57.4752V57.4753M101.143 57.4753V57.4754M101.143 57.4753V57.4754M101.143 57.4754V57.4755M101.143 57.4754V57.4755M101.143 57.4755V57.4756M101.143 57.4755V57.4756M101.143 57.4756V57.4757M101.143 57.4756V57.4757M101.143 57.4757V57.4758M101.143 57.4757V57.4758M101.143 57.4758V57.4759M101.143 57.4758V57.4759M101.143 57.4759V57.4759M101.143 57.4759V57.4759M101.143 57.4759V57.476M101.143 57.4759V57.476M101.143 57.476V57.4761M101.143 57.476V57.4761M101.143 57.4761V57.4762M101.143 57.4761V57.4762M101.143 57.4762V57.4763M101.143 57.4762V57.4763M101.143 57.4763V57.4764M101.143 57.4763V57.4764M101.143 57.4764V57.4765M101.143 57.4764V57.4765M101.143 57.4765V57.4766M101.143 57.4765V57.4766M101.143 57.4766V57.4766M101.143 57.4766V57.4766M101.143 57.4766V57.4767M101.143 57.4766V57.4767M101.143 57.4767V57.4768M101.143 57.4767V57.4768M101.143 57.4768V57.4769M101.143 57.4768V57.4769M101.143 57.4769V57.477M101.143 57.4769V57.477M101.143 57.477V57.4771M101.143 57.477V57.4771M101.143 57.4771V57.4772M101.143 57.4771V57.4772M101.143 57.4772V57.4772M101.143 57.4772V57.4772M101.143 57.4772V57.4773M101.143 57.4772V57.4773M101.143 57.4773V57.4774M101.143 57.4773V57.4774M101.143 57.4774V57.4775M101.143 57.4774V57.4775M101.143 57.4775V57.4776M101.143 57.4775V57.4776M101.143 57.4776V57.4777M101.143 57.4776V57.4777M101.143 57.4777V57.4778M101.143 57.4777V57.4778M101.143 57.4778V57.4778M101.143 57.4778V57.4778M101.143 57.4778V57.4779M101.143 57.4778V57.4779M101.143 57.4779V57.478M101.143 57.4779V57.478M101.143 57.478V57.4781M101.143 57.478V57.4781M101.143 57.4781V57.4782M101.143 57.4781V57.4782M101.143 57.4782V57.4783M101.143 57.4782V57.4783M101.143 57.4783V57.4784M101.143 57.4783V57.4784M101.143 57.4784V57.4784M101.143 57.4784V57.4784M101.143 57.4784V57.4785M101.143 57.4784V57.4785M101.143 57.4785V57.4786M101.143 57.4785V57.4786M101.143 57.4786V57.4787M101.143 57.4786V57.4787M101.143 57.4787V57.4788M101.143 57.4787V57.4788M101.143 57.4788V57.4789M101.143 57.4788V57.4789M101.143 57.4789V57.479M101.143 57.4789V57.479M101.143 57.479V57.479M101.143 57.479V57.479M101.143 57.479V57.4791M101.143 57.479V57.4791M101.143 57.4791V57.4792M101.143 57.4791V57.4792M101.143 57.4792V57.4793M101.143 57.4792V57.4793M101.143 57.4793V57.4794M101.143 57.4793V57.4794M101.143 57.4794V57.4795M101.143 57.4794V57.4795M101.143 57.4795V57.4795M101.143 57.4795V57.4795M101.143 57.4795V57.4796M101.143 57.4795V57.4796M101.143 57.4796V57.4797M101.143 57.4796V57.4797M101.143 57.4797V57.4798M101.143 57.4797V57.4798M101.143 57.4798V57.4799M101.143 57.4798V57.4799M101.143 57.4799V57.48M101.143 57.4799V57.48M101.143 57.48V57.48M101.143 57.48V57.48M101.143 57.48V57.4801M101.143 57.48V57.4801M101.143 57.4801V57.4802M101.143 57.4801V57.4802M101.143 57.4802V57.4803M101.143 57.4802V57.4803M101.143 57.4803V57.4804M101.143 57.4803V57.4804M101.143 57.4804V57.4805M101.143 57.4804V57.4805M101.143 57.4805V57.4805M101.143 57.4805V57.4805M101.143 57.4805V57.4806M101.143 57.4805V57.4806M101.143 57.4806V57.4807M101.143 57.4806V57.4807M101.143 57.4807V57.4808M101.143 57.4807V57.4808M101.143 57.4808V57.4809M101.143 57.4808V57.4809M101.143 57.4809V57.481M101.143 57.4809V57.481M101.143 57.481V57.481M101.143 57.481V57.481M101.143 57.481V57.4811M101.143 57.481V57.4811M101.143 57.4811V57.4812M101.143 57.4811V57.4812M101.143 57.4812V57.4813M101.143 57.4812V57.4813M101.143 57.4813V57.4814M101.143 57.4813V57.4814M101.143 57.4814V57.4815M101.143 57.4814V57.4815M101.143 57.4815V57.4815M101.143 57.4815V57.4815M101.143 57.4815V57.4816M101.143 57.4815V57.4816M101.143 57.4816V57.4817M101.143 57.4816V57.4817M101.143 57.4817V57.4818M101.143 57.4817V57.4818M101.143 57.4818V57.4819M101.143 57.4818V57.4819M101.143 57.4819V57.482M101.143 57.4819V57.482M101.143 57.482V57.482M101.143 57.482V57.482M101.143 57.482V57.4821M101.143 57.482V57.4821M101.143 57.4821V57.4822M101.143 57.4821V57.4822M101.143 57.4822V57.4823M101.143 57.4822V57.4823M101.143 57.4823V57.4824M101.143 57.4823V57.4824M101.143 57.4824V57.4825M101.143 57.4824V57.4825M101.143 57.4825V57.4826M101.143 57.4825V57.4826M101.143 57.4826V57.4826M101.143 57.4826V57.4826M101.143 57.4826V57.4827M101.143 57.4826V57.4827M101.143 57.4827V57.4828M101.143 57.4827V57.4828M101.143 57.4828V57.4829M101.143 57.4828V57.4829M101.143 57.4829V57.483M101.143 57.4829V57.483M101.143 57.483V57.4831M101.143 57.483V57.4831M101.143 57.4831V57.4831M101.143 57.4831V57.4831M101.143 57.4831V57.4832M101.143 57.4831V57.4832M101.143 57.4832V57.4833M101.143 57.4832V57.4833M101.143 57.4833V57.4834M101.143 57.4833V57.4834M101.143 57.4834V57.4835M101.143 57.4834V57.4835M101.143 57.4835V57.4836M101.143 57.4835V57.4836M101.143 57.4836V57.4836M101.143 57.4836V57.4836M101.143 57.4836V57.4837M101.143 57.4836V57.4837M101.143 57.4837V57.4838M101.143 57.4837V57.4838M101.143 57.4838V57.4839M101.143 57.4838V57.4839M101.143 57.4839V57.484M101.143 57.4839V57.484M101.143 57.484V57.4841M101.143 57.484V57.4841M101.143 57.4841V57.4842M101.143 57.4841V57.4842M101.143 57.4842V57.4842M101.143 57.4842V57.4842M101.143 57.4842V57.4843M101.143 57.4842V57.4843M101.143 57.4843V57.4844M101.143 57.4843V57.4844M101.143 57.4844V57.4845M101.143 57.4844V57.4845M101.143 57.4845V57.4846M101.143 57.4845V57.4846M101.143 57.4846V57.4847M101.143 57.4846V57.4847M101.143 57.4847V57.4848M101.143 57.4847V57.4848M101.143 57.4848V57.4848M101.143 57.4848V57.4848M101.143 57.4848V57.4849M101.143 57.4848V57.4849M101.143 57.4849V57.485M101.143 57.4849V57.485M101.143 57.485V57.4851M101.143 57.485V57.4851M101.143 57.4851V57.4852M101.143 57.4851V57.4852M101.143 57.4852V57.4853V57.4852ZM92.1744 75.4016C97.242 74.3203 102.281 72.5807 106.636 69.6768L92.1612 75.3929L92.1744 75.4016ZM86.2584 83.6709C86.0812 83.7782 85.9051 83.8872 85.7302 83.9978L85.8639 84.2091L86.0653 84.3572C86.1873 84.1913 86.3091 84.0252 86.4306 83.859C89.0738 82.2651 91.9747 81.0515 94.9252 80.3338C96.4445 79.9118 97.9689 79.7092 99.4832 79.5079C101.548 79.2335 103.593 78.9616 105.582 78.1397L86.2584 83.6709ZM80.8204 90.5919L80.9628 90.4494L48.3776 120.042C48.6111 119.884 48.8442 119.726 49.0773 119.571C58.68 113.131 66.9435 105.01 75.0359 96.8037C76.5729 95.3189 77.9907 93.715 79.3983 92.1226C79.5305 91.9732 79.6625 91.8238 79.7945 91.6747C80.3929 91.6177 80.6494 91.1333 80.8204 90.5919ZM105.312 79.531L105.067 79.1026C103.106 79.8415 101.101 80.5114 99.0877 81.1839L99.053 81.1955C97.0524 81.8637 95.0429 82.5349 93.067 83.2769C89.0925 84.7696 85.2405 86.5539 81.8353 89.1976L81.1336 89.7424L82.0164 89.6435C82.7106 89.5658 83.4128 89.501 84.1187 89.4359C87.0009 89.17 89.9456 88.8984 92.66 87.7151L92.6601 87.7152L92.6656 87.7126C97.2216 85.5922 101.457 82.6438 105.312 79.531ZM95.5709 60.3419L95.1096 60.1737C94.1088 61.8465 93.0852 63.7687 92.4673 65.7669C91.8493 67.7655 91.6316 69.8581 92.2648 71.8608L92.422 72.3579L92.7112 71.9241C92.7707 71.8348 92.8297 71.739 92.8858 71.6478L92.887 71.6457C92.9445 71.5523 92.9991 71.4637 93.0531 71.3827L93.0668 71.3621L93.0762 71.3392C93.1574 71.1422 93.2403 70.945 93.3233 70.7476C93.6437 69.9857 93.966 69.2192 94.1962 68.4366L94.1969 68.4341C94.7173 66.5927 94.9747 64.6569 95.2263 62.7651C95.3353 61.9453 95.4432 61.1338 95.5709 60.3419ZM84.4219 75.895C82.5944 77.9836 81.5818 80.6147 81.2314 83.2942L81.2277 83.294C81.0893 84.3739 81.0044 85.5061 80.922 86.6067L80.9144 86.707C80.8836 86.8463 80.8837 87.0048 80.8838 87.129L80.8838 87.144L81.3574 87.2558C83.1084 83.7537 84.2552 79.9104 84.857 76.0986L84.9921 75.2434L84.4219 75.895ZM107.418 66.91L107.177 66.4786C106.253 66.817 105.317 67.0653 104.372 67.3158C104.296 67.336 104.219 67.3562 104.143 67.3765C103.125 67.647 102.099 67.9283 101.1 68.3339L101.091 68.3374L101.083 68.3414L100.966 68.3992C98.3595 69.6884 95.6345 71.036 93.5231 73.1474L93.4944 73.176L93.4763 73.2123C93.4573 73.2503 93.4397 73.2943 93.4268 73.3267L93.4251 73.331C93.4096 73.3695 93.3994 73.3945 93.3908 73.4118L93.1597 73.8741L93.6656 73.7683C98.7592 72.7035 103.41 70.0588 107.418 66.91ZM108.481 29.4328L108.016 29.2891C104.129 36.0338 101.117 43.8251 100.859 51.6029L100.859 51.6029V51.6112C100.859 52.4569 100.908 53.2886 100.956 54.1078C100.972 54.3736 100.987 54.6381 101.001 54.9013L101.485 54.9764C102.049 53.4803 102.756 52.0669 103.472 50.6445L103.538 50.5139C104.231 49.138 104.93 47.7509 105.502 46.2882L105.502 46.2882L105.503 46.2845C107.511 40.8903 108.054 35.0728 108.481 29.4328ZM102.057 59.9441C102.057 59.9458 102.057 59.9467 102.057 59.9457L102.057 59.9441Z" fill="white" stroke="black" stroke-width="0.5"/>
</svg>
