<svg width="72" height="130" viewBox="0 0 72 130" fill="none" xmlns="http://www.w3.org/2000/svg">
<path d="M37.074 61.1862L37.074 61.1862C37.0377 61.5126 37.293 61.8414 37.6589 61.8864H37.659H37.6591H37.6593H37.6595H37.6596H37.6598H37.6599H37.6601H37.6602H37.6604H37.6605H37.6607H37.6608H37.661H37.6612H37.6613H37.6615H37.6616H37.6618H37.6619H37.6621H37.6622H37.6624H37.6626H37.6627H37.6629H37.663H37.6632H37.6633H37.6635H37.6636H37.6638H37.6639H37.6641H37.6643H37.6644H37.6646H37.6647H37.6649H37.665H37.6652H37.6653H37.6655H37.6656H37.6658H37.666H37.6661H37.6663H37.6664H37.6666H37.6667H37.6669H37.667H37.6672H37.6674H37.6675H37.6677H37.6678H37.668H37.6681H37.6683H37.6684H37.6686H37.6687H37.6689H37.6691H37.6692H37.6694H37.6695H37.6697H37.6698H37.67H37.6701H37.6703H37.6705H37.6706H37.6708H37.6709H37.6711H37.6712H37.6714H37.6715H37.6717H37.6718H37.672H37.6722H37.6723H37.6725H37.6726H37.6728H37.6729H37.6731H37.6732H37.6734H37.6735H37.6737H37.6739H37.674H37.6742H37.6743H37.6745H37.6746H37.6748H37.6749H37.6751H37.6753H37.6754H37.6756H37.6757H37.6759H37.676H37.6762H37.6763H37.6765H37.6766H37.6768H37.677H37.6771H37.6773H37.6774H37.6776H37.6777H37.6779H37.678H37.6782H37.6783H37.6785H37.6787H37.6788H37.679H37.6791H37.6793H37.6794H37.6796H37.6797H37.6799H37.6801H37.6802H37.6804H37.6805H37.6807H37.6808H37.681H37.6811H37.6813H37.6814H37.6816H37.6818H37.6819H37.6821H37.6822H37.6824H37.6825H37.6827H37.6828H37.683H37.6832H37.6833H37.6835H37.6836H37.6838H37.6839H37.6841H37.6842H37.6844H37.6845H37.6847H37.6849H37.685H37.6852H37.6853H37.6855H37.6856H37.6858H37.6859H37.6861H37.6862H37.6864H37.6866H37.6867H37.6869H37.687H37.6872H37.6873H37.6875H37.6876H37.6878H37.688H37.6881H37.6883H37.6884H37.6886H37.6887H37.6889H37.689H37.6892H37.6893H37.6895H37.6897H37.6898H37.69H37.6901H37.6903H37.6904H37.6906H37.6907H37.6909H37.6911H37.6912H37.6914H37.6915H37.6917H37.6918H37.692H37.6921H37.6923H37.6924H37.6926H37.6928H37.6929H37.6931H37.6932H37.6934H37.6935H37.6937H37.6938H37.694H37.6941H37.6943H37.6945H37.6946H37.6948H37.6949H37.6951H37.6952H37.6954H37.6955H37.6957H37.6959H37.696H37.6962H37.6963H37.6965H37.6966H37.6968H37.6969H37.6971H37.6972H37.6974H37.6976H37.6977H37.6979H37.698H37.6982H37.6983H37.6985H37.6986H37.6988H37.6989H37.6991H37.6993H37.6994H37.6996H37.6997H37.6999H37.7H37.7002H37.7003H37.7005H37.7007H37.7008H37.701H37.7011H37.7013H37.7014H37.7016H37.7017H37.7019H37.702H37.7022H37.7024H37.7025H37.7027H37.7028H37.703H37.7031H37.7033H37.7034H37.7036H37.7038H37.7039H37.7041H37.7042H37.7044H37.7045H37.7047H37.7048H37.705H37.7051H37.7053H37.7055H37.7056H37.7058H37.7059H37.7061H37.7062H37.7064H37.7065H37.7067H37.7068H37.707H37.7072H37.7073H37.7075H37.7076H37.7078H37.7079H37.7081H37.7082H37.7084H37.7086H37.7087H37.7089H37.709H37.7092H37.7093H37.7095H37.7096H37.7098H37.7099H37.7101H37.7103H37.7104H37.7106H37.7107H37.7109H37.711H37.7112H37.7113H37.7115H37.7116H37.7118H37.712H37.7121H37.7123H37.7124H37.7126H37.7127H37.7129H37.713H37.7132H37.7134H37.7135H37.7137H37.7138H37.714H37.7141H37.7143H37.7144H37.7146H37.7147H37.7149H37.7151H37.7152H37.7154H37.7155H37.7157H37.7158H37.716H37.7161H37.7163H37.7164H37.7166H37.7168H37.7169H37.7171H37.7172H37.7174H37.7175H37.7177H37.7178H37.718H37.7182H37.7183H37.7185H37.7186H37.7188H37.7189H37.7191H37.7192H37.7194H37.7195H37.7197H37.7199H37.72H37.7202H37.7203H37.7205H37.7206H37.7208H37.7209H37.7211H37.7212H37.7214H37.7216H37.7217H37.7219H37.722H37.7222H37.7223H37.7225H37.7226H37.7228H37.723H37.7231H37.7233H37.7234H37.7236H37.7237H37.7239H37.724C38.0445 61.8864 38.334 61.6404 38.3738 61.2917C38.3739 61.291 38.374 61.2903 38.3741 61.2896L38.6225 61.3172C39.0189 57.0361 39.6267 52.7021 40.4195 48.4738L37.074 61.1862ZM37.074 61.1862L37.0745 61.1814C37.4701 56.8561 38.1032 52.4769 38.8948 48.2022L38.8948 48.2022C39.7397 43.6347 40.8958 38.8932 43.4573 34.9203C45.9526 31.0617 49.2566 27.6783 52.4745 24.3832C52.5414 24.3147 52.6083 24.2462 52.6752 24.1777C52.6752 24.1776 52.6753 24.1775 52.6754 24.1774L52.4965 24.0028L37.074 61.1862Z" fill="white" stroke="black" stroke-width="0.5"/>
<path d="M37.0722 61.1449L37.0722 61.1449C37.0164 61.498 37.2502 61.8202 37.6127 61.8865H37.6128H37.613H37.6133H37.6136H37.6139H37.6141H37.6144H37.6147H37.6149H37.6152H37.6155H37.6157H37.616H37.6163H37.6165H37.6168H37.6171H37.6173H37.6176H37.6179H37.6181H37.6184H37.6187H37.6189H37.6192H37.6194H37.6197H37.62H37.6202H37.6205H37.6207H37.621H37.6213H37.6215H37.6218H37.622H37.6223H37.6226H37.6228H37.6231H37.6233H37.6236H37.6238H37.6241H37.6244H37.6246H37.6249H37.6251H37.6254H37.6256H37.6259H37.6261H37.6264H37.6266H37.6269H37.6271H37.6274H37.6276H37.6279H37.6281H37.6284H37.6286H37.6289H37.6291H37.6294H37.6296H37.6299H37.6301H37.6304H37.6306H37.6309H37.6311H37.6314H37.6316H37.6319H37.6321H37.6324H37.6326H37.6329H37.6331H37.6333H37.6336H37.6338H37.6341H37.6343H37.6346H37.6348H37.635H37.6353H37.6355H37.6358H37.636H37.6363H37.6365H37.6367H37.637H37.6372H37.6375H37.6377H37.638H37.6382H37.6384H37.6387H37.6389H37.6392H37.6394H37.6396H37.6399H37.6401H37.6403H37.6406H37.6408H37.6411H37.6413H37.6415H37.6418H37.642H37.6423H37.6425H37.6427H37.643H37.6432H37.6434H37.6437H37.6439H37.6441H37.6444H37.6446H37.6449H37.6451H37.6453H37.6456H37.6458H37.646H37.6463H37.6465H37.6467H37.647H37.6472H37.6474H37.6477H37.6479H37.6481H37.6484H37.6486H37.6488H37.6491H37.6493H37.6495H37.6498H37.65H37.6503H37.6505H37.6507H37.651H37.6512H37.6514H37.6516H37.6519H37.6521H37.6523H37.6526H37.6528H37.653H37.6533H37.6535H37.6537H37.654H37.6542H37.6544H37.6547H37.6549H37.6551H37.6554H37.6556H37.6558H37.6561H37.6563H37.6565H37.6568H37.657H37.6572H37.6575H37.6577H37.6579H37.6582H37.6584H37.6586H37.6589H37.6591H37.6593H37.6596H37.6598H37.66H37.6603H37.6605H37.6607H37.6609H37.6612H37.6614H37.6616H37.6619H37.6621H37.6623H37.6626H37.6628H37.663H37.6633H37.6635H37.6637H37.664H37.6642H37.6644H37.6647H37.6649H37.6651H37.6654H37.6656H37.6658H37.6661H37.6663H37.6665H37.6668H37.667H37.6672H37.6675H37.6677H37.6679H37.6682H37.6684H37.6687H37.6689H37.6691H37.6694H37.6696H37.6698H37.6701H37.6703H37.6705H37.6708H37.671H37.6712H37.6715H37.6717H37.672H37.6722H37.6724H37.6727H37.6729H37.6731H37.6734H37.6736H37.6739H37.6741H37.6743H37.6746H37.6748H37.675H37.6753H37.6755H37.6758H37.676H37.6762H37.6765H37.6767H37.677H37.6772H37.6774H37.6777H37.6779H37.6782H37.6784H37.6786H37.6789H37.6791H37.6794H37.6796H37.6799H37.6801H37.6803H37.6806H37.6808H37.6811H37.6813H37.6816H37.6818H37.682H37.6823H37.6825H37.6828H37.683H37.6833H37.6835H37.6838H37.684H37.6843H37.6845H37.6848H37.685H37.6853H37.6855H37.6858H37.686H37.6862H37.6865H37.6867H37.687H37.6872H37.6875H37.6877H37.688H37.6883H37.6885H37.6888H37.689H37.6893H37.6895H37.6898H37.69H37.6903H37.6905H37.6908H37.691H37.6913H37.6915H37.6918H37.6921H37.6923H37.6926H37.6928H37.6931H37.6933H37.6936H37.6939H37.6941H37.6944H37.6946H37.6949H37.6952H37.6954H37.6957H37.6959H37.6962H37.6965H37.6967H37.697H37.6973H37.6975H37.6978H37.6981H37.6983H37.6986H37.6988H37.6991H37.6994H37.6996H37.6999H37.7002H37.7005H37.7007H37.701H37.7013H37.7015H37.7018H37.7021H37.7023H37.7026H37.7029H37.7032H37.7034H37.7037H37.704H37.7043H37.7045H37.7048H37.7051H37.7054H37.7056H37.7059H37.7062H37.7065H37.7067H37.707H37.7073H37.7076H37.7079H37.7081H37.7084H37.7087H37.709H37.7093H37.7096H37.7098H37.7101H37.7104H37.7107H37.711H37.7113H37.7115H37.7118H37.7121H37.7124H37.7127H37.713H37.7133H37.7136H37.7139H37.7141H37.7144H37.7147H37.715H37.7153H37.7156H37.7159H37.7162H37.7165H37.7168H37.7171H37.7174H37.7177H37.718H37.7183H37.7186H37.7189H37.7192H37.7195H37.7198H37.7201H37.7204H37.7207H37.721H37.7213H37.7216H37.7219H37.7222H37.7225H37.7228H37.7231H37.7235H37.7238C38.0203 61.8865 38.3182 61.6611 38.4027 61.3237C38.7805 58.5642 39.9891 56.0748 41.6316 54.6787L41.632 54.6783C43.0367 53.4897 44.7336 52.7104 46.4722 51.9201C46.5581 51.8801 46.6441 51.8402 46.7301 51.8002C48.1849 51.1242 49.6482 50.4443 50.9475 49.4882L50.9491 49.487C54.8855 46.6383 57.3262 41.54 58.3529 33.8803C58.7062 31.13 59.2993 28.1413 59.879 25.2199C59.9086 25.0709 59.9381 24.9221 59.9676 24.7736C59.9676 24.7735 59.9676 24.7735 59.9676 24.7734L59.9712 24.7553C60.5518 21.7993 61.1562 18.7224 61.5242 15.9886L61.525 15.983L61.525 15.983C61.5817 15.6241 61.3393 15.2971 60.9666 15.2383C60.6085 15.1817 60.2822 15.4231 60.2223 15.7944C59.8519 18.4921 59.2446 21.5566 58.6649 24.4813L58.6611 24.5003C58.6287 24.6652 58.5962 24.8303 58.5637 24.9955C57.9861 27.9309 57.3993 30.9131 57.0252 33.6814L37.0722 61.1449ZM37.0722 61.1449L37.0728 61.1406M37.0722 61.1449L37.0728 61.1406M37.0728 61.1406C37.516 57.9863 38.869 55.248 40.7395 53.6593C42.268 52.3639 44.0856 51.5313 45.8876 50.7098L45.8876 50.7098M37.0728 61.1406L45.8876 50.7098M45.8876 50.7098L45.9292 50.6909M45.8876 50.7098L45.9292 50.6909M45.9292 50.6909C47.4164 50.0125 48.8788 49.3455 50.1594 48.4117M45.9292 50.6909L50.1594 48.4117M50.1594 48.4117C53.8347 45.7362 56.0701 40.8968 57.0251 33.6821L50.1594 48.4117Z" fill="white" stroke="black" stroke-width="0.5"/>
<path d="M47.2704 30.9826L47.2704 30.9826L47.2642 30.9787C46.9709 30.7954 46.8814 30.3749 47.0776 30.0576C48.5187 27.895 49.4904 25.4515 49.6535 23.495C49.7862 21.9293 49.8129 21.3144 49.8129 19.8008C49.8129 17.5366 49.626 15.9364 49.2283 13.603C49.1719 13.2408 49.4188 12.9172 49.7616 12.8595C50.1242 12.8028 50.4481 13.0502 50.5055 13.3935C50.9008 15.7918 51.11 17.4417 51.11 19.8008V19.8015C51.11 21.3308 51.11 22.0086 50.9526 23.635L50.9525 23.636C50.6678 26.7156 48.901 29.6847 48.1401 30.813L48.134 30.822L48.1288 30.8314C48.0457 30.981 47.8444 31.0992 47.6338 31.0992C47.5035 31.0992 47.3925 31.0641 47.2704 30.9826Z" fill="white" stroke="black" stroke-width="0.5"/>
<path d="M37.3092 62.9359L37.309 62.9359C37.3651 63.2351 37.6273 63.4455 37.9354 63.4455L37.9611 63.4454C37.9621 63.4454 37.9631 63.4454 37.9641 63.4454L37.9961 63.4134L38.0689 63.398C38.4256 63.3229 38.6409 62.9627 38.5635 62.6137C37.1044 56.114 36.7056 48.9762 37.4495 43.0516L37.4497 43.0499C37.7416 40.8477 38.1137 38.9583 38.6203 37.2252L38.6203 37.2252C39.9503 32.6767 42.4735 28.453 44.8984 24.3941L44.9088 24.3766L44.9093 24.3757C46.9979 20.9124 49.1272 17.3096 50.5982 13.4747L50.6003 13.469L50.6004 13.469C50.7284 13.1583 50.567 12.7723 50.2124 12.6344L50.2078 12.6326L50.2079 12.6326C49.8974 12.5048 49.5119 12.6657 49.3737 13.0195C47.9659 16.7377 45.844 20.2925 43.8143 23.693L43.8053 23.708L43.8052 23.7083C41.3186 27.8614 38.7726 32.1424 37.3824 36.8638C36.8584 38.6454 36.4644 40.6138 36.175 42.9025L37.3092 62.9359ZM37.3092 62.9359L37.3072 62.9271M37.3092 62.9359L37.3072 62.9271M37.3072 62.9271C35.8067 56.2669 35.4125 48.976 36.175 42.9027L37.3072 62.9271Z" fill="white" stroke="black" stroke-width="0.5"/>
<path d="M37.6932 63.3875L37.7035 63.3927C37.7706 63.4263 37.8638 63.4456 37.9353 63.4456C38.195 63.4456 38.4306 63.3027 38.5796 63.0106C39.1512 61.6106 40.2704 60.6385 41.456 59.9697C42.6443 59.2994 43.9184 58.9226 44.8305 58.7213C44.8309 58.7213 44.8313 58.7212 44.8316 58.7211L44.8855 58.9652C45.6991 58.7775 46.5456 58.6556 47.3861 58.5346C47.6103 58.5023 47.8341 58.4701 48.0567 58.4367L37.6932 63.3875ZM37.6932 63.3875L37.6824 63.3833C37.345 63.2521 37.1846 62.8752 37.3219 62.5195C37.9955 60.869 39.2559 59.7175 40.6249 58.9168C41.9948 58.1155 43.4603 57.6736 44.5159 57.4389C45.5229 57.2232 46.5524 57.0731 47.5528 56.9273C47.6446 56.9139 47.7362 56.9006 47.8275 56.8872C49.5685 56.6498 51.2313 56.4093 52.818 55.8446L52.8193 55.8441C55.9452 54.7123 58.4374 52.4529 61.2161 49.436C63.3883 47.0784 65.454 44.6154 67.4132 42.1001L67.8808 41.4998L67.1483 41.7058C65.4862 42.1733 63.6881 42.3046 61.9682 42.4105L61.9676 42.4105C59.4489 42.5713 56.0862 43.6156 54.253 46.0233L54.253 46.0233L54.2503 46.0269C54.0448 46.3072 53.6264 46.3675 53.3396 46.1381C53.044 45.9016 52.9948 45.5026 53.2201 45.221L53.2202 45.221L53.2236 45.2166C55.3028 42.4957 59.0507 41.295 61.8676 41.1125L61.8694 41.1123C61.9269 41.1082 61.9845 41.104 62.0422 41.0999C63.4495 40.9988 64.8987 40.8947 66.2304 40.5949C67.6179 40.2824 68.9022 39.7527 69.8989 38.7714M37.6932 63.3875L69.8989 38.7714M69.8989 38.7714C70.1574 38.5353 70.5417 38.5266 70.7801 38.7278C71.0477 38.9576 71.0901 39.3155 70.8947 39.6114C68.2323 43.3543 65.3063 46.9655 62.1961 50.3393L69.8989 38.7714Z" fill="white" stroke="black" stroke-width="0.5"/>
<path d="M37.8073 99.5724L37.8081 99.5751C37.885 99.8829 38.1519 100.073 38.4376 100.073C38.5145 100.073 38.532 100.072 38.5699 100.059L38.582 100.055L38.5821 100.056C38.9434 99.9552 39.1652 99.6 39.0923 99.2685C38.9019 98.452 38.8218 97.5338 38.8218 96.5703V96.5595L38.822 96.5596C38.9302 94.0453 39.9487 91.5604 41.1574 89.4559C42.3676 87.349 43.7795 85.6043 44.698 84.566C46.0797 82.987 47.6208 81.5233 49.1214 80.0982C49.2379 79.9875 49.3542 79.877 49.4702 79.7667L49.4709 79.7661C51.7978 77.5714 54.1603 75.313 56.1007 72.6909C56.1008 72.6907 56.1009 72.6906 56.101 72.6904L56.302 72.8392C57.3139 71.4593 58.3859 70.0794 59.4308 68.7344C59.5866 68.5338 59.7417 68.3341 59.896 68.1352L37.8073 99.5724ZM37.8073 99.5724C37.5243 98.4915 37.4462 97.4077 37.4981 96.3446L37.4984 96.3446V96.3324C37.4984 92.6545 38.4082 88.4222 39.0172 85.589L39.0255 85.5501L39.0257 85.5494C39.5792 82.9402 40.4696 79.651 42.3695 76.8923L37.8073 99.5724ZM64.2272 59.6578L63.8412 59.3439C59.7274 63.4841 55.3504 67.3602 50.7102 70.9198C50.5738 71.0155 50.4451 71.1172 50.3226 71.2139L50.32 71.2159C50.1936 71.3157 50.0736 71.4103 49.9483 71.498L49.9482 71.4978L49.9399 71.5042L49.9141 71.5239C47.5767 73.3098 45.0964 75.2048 43.4373 77.6399C41.664 80.2195 40.837 83.3786 40.3077 85.8396C40.1484 86.53 39.9893 87.2989 39.8306 88.1191L40.2891 88.2975C41.4161 86.4627 42.6754 84.862 43.6998 83.68C45.2236 81.9461 46.9067 80.3415 48.5448 78.8092L48.5454 78.8086C50.8162 76.6697 53.1581 74.4354 55.0234 71.904L55.0237 71.9035C56.1842 70.3211 57.4242 68.7116 58.6384 67.1806L58.6392 67.1797L58.7405 67.0506C60.6356 64.6365 62.5589 62.1863 64.2272 59.6578Z" fill="white" stroke="black" stroke-width="0.5"/>
<path d="M33.0484 28.9891C33.9202 26.0831 34.7968 23.056 35.2754 20.0516L35.2754 20.0513C36.0737 14.9957 35.7267 9.78852 35.1713 4.7105L34.6886 4.65029L32.8087 28.9181M33.0484 28.9891C33.0483 28.9894 33.0482 28.9896 33.0481 28.9899L32.8087 28.9181M33.0484 28.9891C33.0484 28.9888 33.0485 28.9886 33.0486 28.9883L32.8087 28.9181M33.0484 28.9891C32.986 29.202 32.9234 29.4152 32.8606 29.6289C32.1505 32.0454 31.4256 34.5123 30.967 37.0226M32.8087 28.9181C32.7461 29.1316 32.6832 29.3456 32.6202 29.5602C31.9107 31.9746 31.1821 34.4541 30.721 36.9782M30.967 37.0226C30.967 37.0224 30.967 37.0223 30.9671 37.0221L30.721 36.9782M30.967 37.0226C30.7037 38.4969 30.4938 39.9675 30.3889 41.4357L29.8948 41.4687C28.8853 36.6074 28.5936 31.2973 29.0713 26.0152M30.967 37.0226C30.967 37.0227 30.9669 37.0229 30.9669 37.0231L30.721 36.9782M30.721 36.9782L29.0713 26.0152M34.9228 4.73768C34.9431 4.92284 34.963 5.10815 34.9827 5.29358C35.0407 5.13731 35.0988 4.98114 35.157 4.82507L34.9228 4.73768ZM34.9228 4.73768L34.6743 4.76486C34.6924 4.93036 34.7103 5.09595 34.7279 5.26161C34.7927 5.08683 34.8577 4.91219 34.9228 4.73768ZM29.3203 26.0376L29.0714 26.015L29.3203 26.0376ZM29.3203 26.0376L29.0713 26.0152M29.3203 26.0376L29.0713 26.0152M30.1396 41.4179L29.8902 41.4001C29.9109 41.1098 29.9357 40.8197 29.9641 40.5296C30.0199 40.8273 30.0784 41.1234 30.1396 41.4179ZM30.1396 41.4179L30.3843 41.367C30.3259 41.0857 30.2699 40.8028 30.2164 40.5185C30.1867 40.8183 30.161 41.1181 30.1396 41.4179ZM32.7534 58.4847L32.7526 58.4826C31.5184 55.1213 30.7567 51.6281 30.4414 48.1079L30.4384 48.0745L30.4267 48.043C28.0101 41.5548 27.0618 33.7178 27.7723 25.9018C28.578 17.1955 31.669 8.97189 34.6757 0.97226C34.7125 0.874569 34.7492 0.77691 34.7859 0.679284C34.9052 0.383695 35.196 0.218437 35.4711 0.255125L35.4732 0.255379C35.7824 0.29403 36.01 0.521583 36.0489 0.83072C36.8158 7.20407 37.5765 13.7763 36.5522 20.2637C36.053 23.3635 35.1594 26.4137 34.2868 29.3754C33.5211 31.9365 32.7241 34.6186 32.2455 37.2771C31.6075 40.7599 31.4213 44.2702 31.7139 47.781L31.7164 47.8109L31.7258 47.8393C31.7375 47.8742 31.7394 47.9132 31.7394 47.9981V48.0088L31.7403 48.0195C32.033 51.4253 32.8045 54.8028 33.9741 58.0458L33.974 58.0458L33.9763 58.0516C34.1053 58.3834 33.9264 58.7522 33.5855 58.8926L33.5771 58.896L33.5689 58.9001C33.5233 58.9229 33.4756 58.9266 33.3636 58.9266C33.101 58.9266 32.8506 58.7568 32.7534 58.4847Z" fill="white" stroke="black" stroke-width="0.5"/>
<path d="M28.2225 39.6677L28.2217 39.666L23.4121 30.2319C21.8766 27.2138 20.3102 24.1291 19.7362 20.6848L19.7361 20.6842C19.1622 17.2932 19.6306 13.9223 20.107 10.587C20.2266 9.75011 20.3384 8.86522 20.4511 7.97379C20.5373 7.29156 20.624 6.60549 20.7151 5.93417L20.7151 5.93418L20.7156 5.93003C20.9003 4.37317 21.1114 2.73748 21.3224 1.26038C21.3819 0.888706 21.7084 0.647042 22.0668 0.70363C22.4394 0.762463 22.6819 1.0894 22.6252 1.44834L22.6247 1.45197C22.5051 2.28889 22.3933 3.17377 22.2806 4.06519C22.1944 4.74743 22.1077 5.4335 22.0166 6.10483L22.0166 6.10482L22.0161 6.10897C21.8314 7.66608 21.6202 9.27627 21.409 10.781C20.9606 13.946 20.5041 17.2609 21.0399 20.4762C21.569 23.6767 23.0888 26.6616 24.5474 29.5264L24.6049 29.6394L24.605 29.6396L29.4146 39.0739L29.4165 39.0773C29.5886 39.4025 29.4526 39.8001 29.1346 39.9497L29.1345 39.9497L29.1292 39.9523C29.0048 40.0146 28.9108 40.0317 28.8181 40.0317C28.5878 40.0317 28.3353 39.8933 28.2225 39.6677Z" fill="white" stroke="black" stroke-width="0.5"/>
<path d="M27.188 13.4159L27.188 13.4157C26.4398 9.11373 24.4097 4.99991 21.4435 1.79322L21.4432 1.79287C21.1916 1.52195 21.2184 1.10468 21.4755 0.88432C21.7583 0.641915 22.1786 0.661747 22.3915 0.910057L22.3913 0.910191L22.3983 0.917635C25.5359 4.29061 27.6813 8.65927 28.4659 13.2104L28.466 13.2105C29.2033 17.4767 29.4388 21.1815 29.1766 24.5649L29.1753 24.5811L29.1762 24.5973C29.1936 24.9289 28.9153 25.1799 28.5802 25.1799H28.58H28.5799H28.5797H28.5795H28.5794H28.5792H28.5791H28.5789H28.5788H28.5786H28.5785H28.5783H28.5782H28.578H28.5778H28.5777H28.5775H28.5774H28.5772H28.5771H28.5769H28.5768H28.5766H28.5764H28.5763H28.5761H28.576H28.5758H28.5757H28.5755H28.5754H28.5752H28.5751H28.5749H28.5747H28.5746H28.5744H28.5743H28.5741H28.574H28.5738H28.5737H28.5735H28.5734H28.5732H28.573H28.5729H28.5727H28.5726H28.5724H28.5723H28.5721H28.572H28.5718H28.5716H28.5715H28.5713H28.5712H28.571H28.5709H28.5707H28.5706H28.5704H28.5703H28.5701H28.5699H28.5698H28.5696H28.5695H28.5693H28.5692H28.569H28.5689H28.5687H28.5686H28.5684H28.5682H28.5681H28.5679H28.5678H28.5676H28.5675H28.5673H28.5672H28.567H28.5668H28.5667H28.5665H28.5664H28.5662H28.5661H28.5659H28.5658H28.5656H28.5655H28.5653H28.5651H28.565H28.5648H28.5647H28.5645H28.5644H28.5642H28.5641H28.5639H28.5638H28.5636H28.5634H28.5633H28.5631H28.563H28.5628H28.5627H28.5625H28.5624H28.5622H28.562H28.5619H28.5617H28.5616H28.5614H28.5613H28.5611H28.561H28.5608H28.5607H28.5605H28.5603H28.5602H28.56H28.5599H28.5597H28.5596H28.5594H28.5593H28.5591H28.5589H28.5588H28.5586H28.5585H28.5583H28.5582H28.558H28.5579H28.5577H28.5576H28.5574H28.5572H28.5571H28.5569H28.5568H28.5566H28.5565H28.5563H28.5562H28.556H28.5559H28.5557H28.5555H28.5554H28.5552H28.5551H28.5549H28.5548H28.5546H28.5545H28.5543H28.5541H28.554H28.5538H28.5537H28.5535H28.5534H28.5532H28.5531H28.5529H28.5528H28.5526H28.5524H28.5523H28.5521H28.552H28.5518H28.5517H28.5515H28.5514H28.5512H28.5511H28.5509H28.5507H28.5506H28.5504H28.5503H28.5501H28.55H28.5498H28.5497H28.5495H28.5493H28.5492H28.549H28.5489H28.5487H28.5486H28.5484H28.5483H28.5481H28.548H28.5478H28.5476H28.5475H28.5473H28.5472H28.547H28.5469H28.5467H28.5466H28.5464H28.5462H28.5461H28.5459H28.5458H28.5456H28.5455H28.5453H28.5452H28.545H28.5449H28.5447H28.5445H28.5444H28.5442H28.5441H28.5439H28.5438H28.5436H28.5435H28.5433H28.5432H28.543H28.5428H28.5427H28.5425H28.5424H28.5422H28.5421H28.5419H28.5418H28.5416H28.5414H28.5413H28.5411H28.541H28.5408H28.5407H28.5405H28.5404H28.5402H28.5401H28.5399H28.5397H28.5396H28.5394H28.5393H28.5391H28.539H28.5388H28.5387H28.5385H28.5384H28.5382H28.538H28.5379H28.5377H28.5376H28.5374H28.5373H28.5371H28.537H28.5368H28.5366H28.5365H28.5363H28.5362H28.536H28.5359H28.5357H28.5356H28.5354H28.5353H28.5351H28.5349H28.5348H28.5346H28.5345H28.5343H28.5342H28.534H28.5339H28.5337H28.5335H28.5334H28.5332H28.5331H28.5329H28.5328H28.5326H28.5325H28.5323H28.5322H28.532H28.5318H28.5317H28.5315H28.5314H28.5312H28.5311H28.5309H28.5308H28.5306H28.5305H28.5303H28.5301H28.53H28.5298H28.5297H28.5295H28.5294H28.5292H28.5291H28.5289H28.5287H28.5286H28.5284H28.5283H28.5281H28.528H28.5278H28.5277H28.5275H28.5274H28.5272H28.527H28.5269H28.5267H28.5266H28.5264H28.5263H28.5261H28.526H28.5258H28.5257H28.5255H28.5253H28.5252H28.525H28.5249H28.5247H28.5246H28.5244H28.5243H28.5241H28.5239H28.5238H28.5236H28.5235H28.5233H28.5232H28.523H28.5229H28.5227H28.5226H28.5224H28.5222H28.5221H28.5219H28.5218H28.5216H28.5215H28.5213H28.5212H28.521H28.5209H28.5207H28.5205H28.5204H28.5202H28.5201H28.5199H28.5198H28.5196H28.5195H28.5193H28.5191H28.519H28.5188H28.5187H28.5185H28.5184H28.5182H28.5181H28.5179H28.5178H28.5176H28.5174H28.5173H28.5171H28.517H28.5168H28.5167H28.5165H28.5164H28.5162H28.516H28.5159H28.5157H28.5156H28.5154H28.5153H28.5151H28.515H28.5148H28.5147H28.5145H28.5143H28.5142H28.514H28.5139H28.5137H28.5136H28.5134H28.5133H28.5131H28.513H28.5128H28.5126H28.5125H28.5123H28.5122H28.512H28.5119H28.5117H28.5116H28.5114H28.5112H28.5111H28.5109H28.5108H28.5106H28.5105H28.5103H28.5102H28.51H28.5099H28.5097H28.5095H28.5094H28.5092H28.5091H28.5089H28.5088H28.5086H28.5085H28.5083H28.5082H28.508C28.16 25.1581 27.8863 24.8416 27.9048 24.4675C28.1441 21.1661 27.9039 17.5519 27.188 13.4159Z" fill="white" stroke="black" stroke-width="0.5"/>
<path d="M30.9667 51.9426L30.9669 51.9425L30.9647 51.9328C29.6575 46.2237 26.247 40.4217 21.3558 35.6368L21.3545 35.6356C20.6133 34.9208 19.8441 34.2046 19.0737 33.5403C17.4597 32.0851 15.814 30.5948 14.4836 28.821C12.0638 25.5946 11.0422 21.7873 10.7141 17.7952C10.3874 13.8188 10.7498 9.67884 11.0923 5.76677L11.097 5.71315L11.1497 5.21323L11.1497 5.21322C11.1892 4.83731 11.4987 4.57919 11.8526 4.61645C12.2285 4.65602 12.4867 4.96549 12.4494 5.31944L12.4494 5.31944L12.3966 5.82155L12.3965 5.82154L12.3961 5.82606C12.3918 5.87604 12.3874 5.92605 12.3831 5.97607C12.044 9.8743 11.6974 13.8584 11.9863 17.6102C12.2791 21.4137 13.226 25.0001 15.5106 28.0374C16.7502 29.6989 18.2733 31.0721 19.8544 32.4975L19.9301 32.5657L19.9306 32.5662C20.6969 33.2532 21.4862 33.9636 22.2485 34.6996C27.3201 39.6926 30.8594 45.7029 32.2213 51.6473C32.2984 51.9961 32.0832 52.356 31.7266 52.4311L31.6951 52.4377L31.6704 52.4501C31.6697 52.4502 31.6689 52.4503 31.6679 52.4504C31.6628 52.451 31.6549 52.4515 31.6419 52.4518C31.6286 52.4521 31.6136 52.4522 31.5931 52.4522C31.285 52.4522 31.0228 52.2417 30.9667 51.9426Z" fill="white" stroke="black" stroke-width="0.5"/>
<path d="M20.4799 18.3701L20.4821 18.3721C20.7467 18.6179 20.7466 19.0359 20.5018 19.2806L20.495 19.2874L20.4888 19.2947C20.3788 19.4231 20.2109 19.4981 20.0444 19.4981C19.8923 19.4981 19.7148 19.4402 19.5772 19.3242C15.5959 15.5507 12.6876 10.7556 11.1412 5.48847C11.0463 5.14358 11.2365 4.77836 11.5816 4.65987C11.9257 4.5677 12.289 4.75862 12.4063 5.10332C13.8725 10.1383 16.67 14.7467 20.4799 18.3701Z" fill="white" stroke="black" stroke-width="0.5"/>
<path d="M2.72096 16.4233L2.72096 16.4233L2.71998 16.423C2.37718 16.2897 2.22576 15.9106 2.35843 15.5884L2.35847 15.5884L2.36026 15.5838C2.49357 15.241 2.87266 15.0896 3.19485 15.2223L3.19484 15.2223L3.19836 15.2237C6.77888 16.635 9.94352 18.9093 12.6141 21.9986C12.846 22.2695 12.8193 22.6868 12.5417 22.9089L12.5417 22.9088L12.5379 22.912C12.4231 23.0076 12.268 23.0655 12.1165 23.0655C11.9256 23.0655 11.7562 22.9919 11.6181 22.8343C9.10945 19.9256 6.11701 17.7604 2.72096 16.4233Z" fill="white" stroke="black" stroke-width="0.5"/>
<path d="M31.3895 53.9509L31.3896 53.9509L31.3876 53.942C30.5808 50.365 28.3272 46.7564 24.6841 43.2463L24.6839 43.2461C22.607 41.2491 20.187 39.5211 17.863 37.8838L17.862 37.8831C16.7278 37.0918 15.5947 36.2749 14.4622 35.4057L14.4618 35.4054C11.6642 33.2676 7.77689 29.947 5.98052 25.3651C5.56063 24.2891 5.19257 23.1852 4.84968 22.1037L4.84969 22.1037L4.84913 22.102C4.16334 19.9919 3.49505 17.9568 2.39506 16.1056L2.39511 16.1056L2.39213 16.1008C2.2089 15.8076 2.31102 15.4025 2.62974 15.2033C2.92206 15.0206 3.32577 15.1216 3.52558 15.4381C4.617 17.2995 5.30861 19.3522 5.98997 21.3745C6.02391 21.4753 6.05784 21.5759 6.09178 21.6765C6.43589 22.7353 6.80726 23.8229 7.20571 24.8589L7.2057 24.8589L7.20643 24.8607C8.89832 29.1576 12.6213 32.3376 15.2674 34.3487C16.0791 34.9821 16.9367 35.5873 17.7778 36.1809C18.0649 36.3835 18.35 36.5847 18.6307 36.7853L18.6312 36.7856L18.6696 36.8129C21.0384 38.4974 23.4657 40.2234 25.6054 42.2848C29.5199 46.0679 31.812 49.7793 32.6703 53.6284C32.7478 53.9775 32.5326 54.3379 32.1757 54.413L32.1286 54.4229L32.0885 54.4496C32.0795 54.4557 32.0747 54.4579 32.0734 54.4584L32.0725 54.4588C32.0718 54.4589 32.0684 54.4595 32.0593 54.46C32.049 54.4605 32.037 54.4605 32.0158 54.4605C31.7077 54.4605 31.4455 54.2501 31.3895 53.9509Z" fill="white" stroke="black" stroke-width="0.5"/>
<path d="M29.3172 60.9667L29.3171 60.9665C26.0304 52.0416 16.793 45.6076 7.28055 45.6076H7.28024H7.27993H7.27962H7.27931H7.279H7.27869H7.27838H7.27807H7.27776H7.27745H7.27714H7.27683H7.27652H7.27621H7.2759H7.27559H7.27528H7.27497H7.27466H7.27435H7.27404H7.27373H7.27342H7.27311H7.2728H7.27249H7.27218H7.27188H7.27157H7.27126H7.27095H7.27064H7.27033H7.27002H7.26971H7.2694H7.26909H7.26878H7.26847H7.26816H7.26785H7.26754H7.26723H7.26692H7.26661H7.2663H7.26599H7.26568H7.26537H7.26506H7.26475H7.26444H7.26413H7.26382H7.26351H7.2632H7.26289H7.26258H7.26227H7.26197H7.26166H7.26135H7.26104H7.26073H7.26042H7.26011H7.2598H7.25949H7.25918H7.25887H7.25856H7.25825H7.25794H7.25763H7.25732H7.25701H7.2567H7.25639H7.25608H7.25577H7.25546H7.25515H7.25484H7.25453H7.25422H7.25391H7.2536H7.25329H7.25298H7.25267H7.25237H7.25206H7.25175H7.25144H7.25113H7.25082H7.25051H7.2502H7.24989H7.24958H7.24927H7.24896H7.24865H7.24834H7.24803H7.24772H7.24741H7.2471H7.24679H7.24648H7.24617H7.24586H7.24555H7.24524H7.24493H7.24462H7.24431H7.244H7.24369H7.24338H7.24307H7.24277H7.24246H7.24215H7.24184H7.24153H7.24122H7.24091H7.2406H7.24029H7.23998H7.23967H7.23936H7.23905H7.23874H7.23843H7.23812H7.23781H7.2375H7.23719H7.23688H7.23657H7.23626H7.23595H7.23564H7.23533H7.23502H7.23471H7.2344H7.23409H7.23378H7.23348H7.23317H7.23286H7.23255H7.23224H7.23193H7.23162H7.23131H7.231H7.23069H7.23038H7.23007H7.22976H7.22945H7.22914H7.22883H7.22852H7.22821H7.2279H7.22759H7.22728H7.22697H7.22666H7.22635H7.22604H7.22573H7.22542H7.22511H7.2248H7.22449H7.22418H7.22388H7.22357H7.22326H7.22295H7.22264H7.22233H7.22202H7.22171H7.2214H7.22109H7.22078H7.22047H7.22016H7.21985H7.21954H7.21923H7.21892H7.21861H7.2183H7.21799H7.21768H7.21737H7.21706H7.21675H7.21644H7.21613H7.21582H7.21551H7.2152H7.21489H7.21459H7.21428H7.21397H7.21366H7.21335H7.21304H7.21273H7.21242H7.21211H7.2118H7.21149H7.21118H7.21087H7.21056H7.21025H7.20994H7.20963H7.20932H7.20901H7.2087H7.20839H7.20808H7.20777H7.20746H7.20715H7.20684H7.20653H7.20622H7.20591H7.2056H7.2053H7.20499H7.20468H7.20437H7.20406H7.20375H7.20344H7.20313H7.20282H7.20251H7.2022H7.20189H7.20158H7.20127H7.20096H7.20065H7.20034H7.20003H7.19972H7.19941H7.1991H7.19879H7.19848H7.19817H7.19786H7.19755H7.19724H7.19693H7.19662H7.19631H7.19601H7.1957H7.19539H7.19508H7.19477H7.19446H7.19415H7.19384H7.19353H7.19322H7.19291H7.1926H7.19229H7.19198H7.19167H7.19136H7.19105H7.19074H7.19043H7.19012H7.18981H7.1895H7.18919H7.18888H7.18857H7.18826H7.18795H7.18764H7.18733H7.18702H7.18672H7.18641H7.1861H7.18579H7.18548H7.18517H7.18486H7.18455H7.18424H7.18393H7.18362H7.18331H7.183H7.18269H7.18238H7.18207H7.18176H7.18145H7.18114H7.18083H7.18052H7.18021H7.1799H7.17959H7.17928H7.17897H7.17866H7.17835H7.17804H7.17773H7.17742H7.17712H7.17681H7.1765H7.17619H7.17588H7.17557H7.17526H7.17495H7.17464H7.17433H7.17402H7.17371H7.1734H7.17309H7.17278H7.17247H7.17216H7.17185H7.17154H7.17123H7.17092H7.17061H7.1703H7.16999H7.16968H7.16937H7.16906H7.16875H7.16844H7.16813H7.16783H7.16752H7.16721H7.1669H7.16659H7.16628H7.16597H7.16566H7.16535H7.16504H7.16473H7.16442H7.16411H7.1638H7.16349H7.16318H7.16287H7.16256H7.16225H7.16194H7.16163H7.16132H7.16101H7.1607H7.16039H7.16008H7.15977H7.15946H7.15915H7.15884H7.15854H7.15823H7.15792H7.15761H7.1573H7.15699H7.15668H7.15637H7.15606H7.15575H7.15544H7.15513H7.15482H7.15451H7.1542H7.15389H7.15358H7.15327H7.15296H7.15265H7.15234H7.15203H7.15172H7.15141H7.1511H7.15079H7.15048H7.15017H7.14986H7.14955H7.14924H7.14894H7.14863H7.14832H7.14801H7.1477H7.14739H7.14708H7.14677H7.14646H7.14615H7.14584H7.14553H7.14522H7.14491H7.1446H7.14429H7.14398H7.14367H7.14336H7.14305H7.14274H7.14243H7.14212H7.14181H7.1415H7.14119H7.14088H7.14057H7.14026H7.13995H7.13964H7.13934H7.13903H7.13872H7.13841H7.1381H7.13779H7.13748H7.13717H7.13686H7.13655H7.13624H7.13593H7.13562H7.13531H7.135H7.13469H7.13438H7.13407H7.13376H7.13345H7.13314H7.13283H7.13252H7.13221H7.1319H7.13159H7.13128H7.13097H7.13066H7.13035H7.13004H7.12973H7.12943H7.12912H7.12881H7.1285H7.12819H7.12788H7.12757H7.12726H7.12695H7.12664H7.12633H7.12602H7.12571H7.1254H7.12509H7.12478H7.12447H7.12416H7.12385H7.12354H7.12323H7.12292H7.12261H7.1223H7.12199C6.75796 45.6076 6.47348 45.3231 6.47348 44.9591C6.47348 44.5993 6.75524 44.3068 7.12903 44.2842H7.12912H7.12943H7.12974H7.13005H7.13036H7.13067H7.13098H7.13129H7.1316H7.13191H7.13222H7.13253H7.13284H7.13315H7.13346H7.13377H7.13408H7.13439H7.1347H7.13501H7.13533H7.13564H7.13595H7.13626H7.13657H7.13688H7.13719H7.1375H7.13781H7.13812H7.13844H7.13875H7.13906H7.13937H7.13968H7.13999H7.14031H7.14062H7.14093H7.14124H7.14155H7.14187H7.14218H7.14249H7.1428H7.14311H7.14343H7.14374H7.14405H7.14436H7.14468H7.14499H7.1453H7.14562H7.14593H7.14624H7.14656H7.14687H7.14718H7.1475H7.14781H7.14812H7.14844H7.14875H7.14907H7.14938H7.1497H7.15001H7.15032H7.15064H7.15095H7.15127H7.15158H7.1519H7.15221H7.15253H7.15284H7.15316H7.15348H7.15379H7.15411H7.15442H7.15474H7.15506H7.15537H7.15569H7.15601H7.15632H7.15664H7.15696H7.15727H7.15759H7.15791H7.15823H7.15854H7.15886H7.15918H7.1595H7.15982H7.16013H7.16045H7.16077H7.16109H7.16141H7.16173H7.16205H7.16237H7.16269H7.16301H7.16333H7.16365H7.16397H7.16429H7.16461H7.16493H7.16525H7.16557H7.16589H7.16621H7.16654H7.16686H7.16718H7.1675H7.16782H7.16815H7.16847H7.16879H7.16911H7.16944H7.16976H7.17008H7.17041H7.17073H7.17106H7.17138H7.1717H7.17203H7.17235H7.17268H7.173H7.17333H7.17365H7.17398H7.17431H7.17463H7.17496H7.17529H7.17561H7.17594H7.17627H7.17659H7.17692H7.17725H7.17758H7.1779H7.17823H7.17856H7.17889H7.17922H7.17955H7.17988H7.18021H7.18054H7.18087H7.1812H7.18153H7.18186H7.18219H7.18252H7.18285H7.18318H7.18352H7.18385H7.18418H7.18451H7.18485H7.18518H7.18551H7.18585H7.18618H7.18651H7.18685H7.18718H7.18752H7.18785H7.18819H7.18852H7.18886H7.18919H7.18953H7.18987H7.1902H7.19054H7.19088H7.19121H7.19155H7.19189H7.19223H7.19257H7.19291H7.19324H7.19358H7.19392H7.19426H7.1946H7.19494H7.19528H7.19562H7.19597H7.19631H7.19665H7.19699H7.19733H7.19768H7.19802H7.19836H7.1987H7.19905H7.19939H7.19974H7.20008H7.20043H7.20077H7.20112H7.20146H7.20181H7.20215H7.2025H7.20285H7.20319H7.20354H7.20389H7.20424H7.20459H7.20493H7.20528H7.20563H7.20598H7.20633H7.20668H7.20703H7.20738H7.20773H7.20809H7.20844H7.20879H7.20914H7.20949H7.20985H7.2102H7.21055H7.21091H7.21126H7.21162H7.21197H7.21233H7.21268H7.21304H7.21339H7.21375H7.21411H7.21447H7.21482H7.21518H7.21554H7.2159H7.21626H7.21662H7.21698H7.21734H7.2177H7.21806H7.21842H7.21878H7.21914H7.2195H7.21986H7.22023H7.22059H7.22095H7.22132H7.22168H7.22205H7.22241H7.22278H7.22314H7.22351H7.22387H7.22424H7.22461H7.22498H7.22534H7.22571H7.22608H7.22645H7.22682H7.22719H7.22756H7.22793H7.2283H7.22867H7.22904H7.22941H7.22979H7.23016H7.23053H7.23091H7.23128H7.23165H7.23203H7.2324H7.23278H7.23315H7.23353H7.23391H7.23428H7.23466H7.23504H7.23542H7.2358H7.23618H7.23655H7.23693H7.23731H7.2377H7.23808H7.23846H7.23884H7.23922H7.2396H7.23999H7.24037H7.24076H7.24114H7.24152H7.24191H7.2423H7.24268H7.24307H7.24346H7.24384H7.24423H7.24462H7.24501H7.2454H7.24579H7.24618H7.24657H7.24696H7.24735H7.24774H7.24813H7.24852H7.24892H7.24931H7.2497H7.2501H7.25049H7.25089H7.25128H7.25168H7.25208H7.25247H7.25287H7.25327H7.25367H7.25407H7.25447H7.25487H7.25527H7.25567H7.25607H7.25647H7.25687H7.25728H7.25768H7.25808H7.25849H7.25889H7.2593H7.2597H7.26011H7.26051H7.26092H7.26133H7.26173H7.26214H7.26255H7.26296H7.26337H7.26378H7.26419H7.2646H7.26501H7.26543H7.26584H7.26625H7.26667H7.26708H7.2675H7.26791H7.26833H7.26874H7.26916H7.26958H7.26999H7.27041H7.27083H7.27125H7.27167H7.27209H7.27251H7.27293H7.27335H7.27378H7.2742H7.27462H7.27505H7.27547H7.27589H7.27632H7.27675H7.27717H7.2776H7.27803H7.27845H7.27888H7.27931H7.27974H7.28017H7.2806H7.28103H7.28147H7.2819H7.28233H7.28276H7.2832H7.28363H7.28407H7.2845H7.28494H7.28538H7.28581H7.28625H7.28669H7.28713H7.28757H7.28801H7.28845H7.28889H7.28933H7.28977H7.29021H7.29066H7.2911H7.29155H7.29199H7.29244H7.29288H7.29333H7.29378H7.29422H7.29467H7.29512H7.29557H7.29602H7.29647H7.29692H7.29737H7.29783H7.29828H7.29873H7.29919H7.29964H7.3001H7.30055H7.30101H7.30147H7.30193H7.30238H7.30284H7.3033H7.30376H7.30422H7.30468H7.30515H7.30561H7.30607H7.30653H7.307C17.3501 44.2842 27.1136 51.0898 30.5922 60.5052C31.5875 63.2296 32.113 66.0893 32.5887 68.8646L32.589 68.8662L35.548 85.4837C35.5481 85.4845 35.5482 85.4852 35.5483 85.486C35.6049 85.8518 35.3784 86.1782 35.0035 86.2572L34.9895 86.2601L34.9759 86.2646C34.953 86.2723 34.9372 86.2751 34.925 86.2765C34.9108 86.278 34.8974 86.2782 34.87 86.2782C34.5643 86.2782 34.2743 86.0439 34.2174 85.7432C34.2173 85.7429 34.2172 85.7426 34.2172 85.7422L31.258 69.1229C31.2579 69.1228 31.2579 69.1227 31.2579 69.1226C30.7828 66.4038 30.2775 63.5808 29.3172 60.9667Z" fill="white" stroke="black" stroke-width="0.5"/>
<path d="M27.5467 68.1412L27.5475 68.1419C30.4859 70.6038 33.319 73.2727 33.989 76.898C34.0448 77.2611 33.8271 77.5816 33.5252 77.6573C33.4737 77.649 33.4287 77.6506 33.3919 77.6547C33.3742 77.6567 33.3541 77.6599 33.3443 77.6615C33.3422 77.6618 33.3406 77.6621 33.3396 77.6622C33.3286 77.6639 33.3306 77.6631 33.337 77.6631C33.031 77.6631 32.7408 77.4284 32.6842 77.1273C32.383 75.4984 31.5433 74.0594 30.4536 72.7518C29.3647 71.4451 28.0152 70.257 26.6798 69.1332C18.1913 61.9627 11.3403 53.8458 6.28222 44.9681C6.11089 44.6628 6.20471 44.2604 6.53286 44.0659C6.83816 43.8956 7.23993 43.9899 7.43394 44.3181C12.4178 53.0659 19.176 61.0685 27.5467 68.1412Z" fill="white" stroke="black" stroke-width="0.5"/>
<path d="M9.43451 57.1385L9.4344 57.1384C9.39717 57.1282 9.35996 57.118 9.32277 57.1078C6.67661 56.3812 4.11108 55.6768 1.46167 55.7817H1.44023C1.0929 55.7817 0.791715 55.4878 0.791715 55.1597H0.792061L0.791369 55.1465C0.772542 54.7888 1.05578 54.4785 1.42507 54.4581C4.28688 54.3544 7.07737 55.1087 9.77773 55.85L9.77892 55.8503C9.94271 55.8944 10.1071 55.9389 10.2719 55.9836C12.1718 56.498 14.1401 57.0309 16.1107 57.1792C16.4845 57.2203 16.7409 57.5287 16.7041 57.8813C16.6638 58.2406 16.3653 58.5037 16.0542 58.5037H16.054H16.0539H16.0537H16.0536H16.0534H16.0532H16.0531H16.0529H16.0528H16.0526H16.0525H16.0523H16.0522H16.052H16.0519H16.0517H16.0515H16.0514H16.0512H16.0511H16.0509H16.0508H16.0506H16.0505H16.0503H16.0502H16.05H16.0498H16.0497H16.0495H16.0494H16.0492H16.0491H16.0489H16.0488H16.0486H16.0484H16.0483H16.0481H16.048H16.0478H16.0477H16.0475H16.0474H16.0472H16.0471H16.0469H16.0467H16.0466H16.0464H16.0463H16.0461H16.046H16.0458H16.0457H16.0455H16.0454H16.0452H16.045H16.0449H16.0447H16.0446H16.0444H16.0443H16.0441H16.044H16.0438H16.0436H16.0435H16.0433H16.0432H16.043H16.0429H16.0427H16.0426H16.0424H16.0423H16.0421H16.0419H16.0418H16.0416H16.0415H16.0413H16.0412H16.041H16.0409H16.0407H16.0406H16.0404H16.0402H16.0401H16.0399H16.0398H16.0396H16.0395H16.0393H16.0392H16.039H16.0388H16.0387H16.0385H16.0384H16.0382H16.0381H16.0379H16.0378H16.0376H16.0375H16.0373H16.0371H16.037H16.0368H16.0367H16.0365H16.0364H16.0362H16.0361H16.0359H16.0357H16.0356H16.0354H16.0353H16.0351H16.035H16.0348H16.0347H16.0345H16.0344H16.0342H16.034H16.0339H16.0337H16.0336H16.0334H16.0333H16.0331H16.033H16.0328H16.0327H16.0325H16.0323H16.0322H16.032H16.0319H16.0317H16.0316H16.0314H16.0313H16.0311H16.0309H16.0308H16.0306H16.0305H16.0303H16.0302H16.03H16.0299H16.0297H16.0296H16.0294H16.0292H16.0291H16.0289H16.0288H16.0286H16.0285H16.0283H16.0282H16.028H16.0279H16.0277H16.0275H16.0274H16.0272H16.0271H16.0269H16.0268H16.0266H16.0265H16.0263H16.0261H16.026H16.0258H16.0257H16.0255H16.0254H16.0252H16.0251H16.0249H16.0248H16.0246H16.0244H16.0243H16.0241H16.024H16.0238H16.0237H16.0235H16.0234H16.0232H16.023H16.0229H16.0227H16.0226H16.0224H16.0223H16.0221H16.022H16.0218H16.0217H16.0215H16.0213H16.0212H16.021H16.0209H16.0207H16.0206H16.0204H16.0203H16.0201H16.02H16.0198H16.0196H16.0195H16.0193H16.0192H16.019H16.0189H16.0187H16.0186H16.0184H16.0182H16.0181H16.0179H16.0178H16.0176H16.0175H16.0173H16.0172H16.017H16.0169H16.0167H16.0165H16.0164H16.0162H16.0161H16.0159H16.0158H16.0156H16.0155H16.0153H16.0152H16.015H16.0148H16.0147H16.0145H16.0144H16.0142H16.0141H16.0139H16.0138H16.0136H16.0134H16.0133H16.0131H16.013H16.0128H16.0127H16.0125H16.0124H16.0122H16.0121H16.0119H16.0117H16.0116H16.0114H16.0113H16.0111H16.011H16.0108H16.0107H16.0105H16.0103H16.0102H16.01H16.0099H16.0097H16.0096H16.0094H16.0093H16.0091H16.009H16.0088H16.0086H16.0085H16.0083H16.0082H16.008H16.0079H16.0077H16.0076H16.0074H16.0073H16.0071H16.0069H16.0068H16.0066H16.0065H16.0063H16.0062H16.006H16.0059H16.0057H16.0055H16.0054H16.0052H16.0051H16.0049H16.0048H16.0046H16.0045H16.0043H16.0042H16.004H16.0038H16.0037H16.0035H16.0034H16.0032H16.0031H16.0029H16.0028H16.0026H16.0025H16.0023H16.0021H16.002H16.0018H16.0017H16.0015H16.0014H16.0012H16.0011H16.0009H16.0007H16.0006H16.0004H16.0003H16.0001H16H15.9998H15.9997H15.9995H15.9994H15.9992H15.999H15.9989H15.9987H15.9986H15.9984H15.9983H15.9981H15.998H15.9978H15.9976H15.9975H15.9973H15.9972H15.997H15.9969H15.9967H15.9966H15.9964H15.9963H15.9961H15.9959H15.9958H15.9956H15.9955H15.9953H15.9952H15.995H15.9949H15.9947H15.9946H15.9944H15.9942H15.9941H15.9939H15.9938H15.9936H15.9935H15.9933H15.9932H15.993H15.9928H15.9927H15.9925H15.9924H15.9922H15.9921H15.9919H15.9918H15.9916H15.9915H15.9913H15.9911H15.991H15.9908H15.9907H15.9905H15.9904H15.9902H15.9901H15.9899H15.9898H15.9896H15.9894H15.9893H15.9891H15.989H15.9888H15.9887H15.9885H15.9884H15.9882H15.988H15.9879H15.9877H15.9876H15.9874H15.9873H15.9871H15.987H15.9868H15.9867H15.9865H15.9863H15.9862H15.986H15.9859H15.9857H15.9856H15.9854H15.9853H15.9851H15.9851C13.743 58.3199 11.549 57.7199 9.43451 57.1385Z" fill="white" stroke="black" stroke-width="0.5"/>
<path d="M31.7665 74.5654L31.7667 74.5652L31.7588 74.5557C31.1069 73.7707 30.479 73.089 29.9116 72.5518C29.3483 72.0185 28.832 71.6154 28.4026 71.4005C26.5098 70.4287 24.4734 69.9695 22.3756 69.4964C22.269 69.4723 22.1622 69.4482 22.0552 69.424L22.0534 69.4236L21.954 69.4019C19.6817 68.9058 17.3997 68.4076 15.2726 67.28L15.2717 67.2795C13.6874 66.4484 12.332 65.3291 11.011 64.193L11.0093 64.1916L0.810009 55.5777C0.809795 55.5775 0.809582 55.5773 0.809368 55.5771C0.54167 55.347 0.506997 54.9235 0.731412 54.6617C0.961367 54.3934 1.38536 54.3585 1.64739 54.5831L1.64878 54.5843L11.8487 63.1988C11.8489 63.1989 11.849 63.199 11.8491 63.1991C13.0883 64.2537 14.4036 65.3557 15.8594 66.1107C17.8756 67.1591 20.048 67.6403 22.3171 68.1152C22.3731 68.1277 22.429 68.1402 22.485 68.1527C24.6831 68.6437 26.9148 69.1421 28.9949 70.2075L28.997 70.2086C29.6237 70.522 30.309 71.076 30.9733 71.7174C31.6341 72.3554 32.2613 73.0672 32.7732 73.684C33.0054 73.9759 32.9634 74.3718 32.6788 74.5994L32.6787 74.5993L32.6723 74.6048C32.5218 74.7338 32.3925 74.7825 32.2536 74.7825C32.0503 74.7825 31.8681 74.7009 31.7665 74.5654Z" fill="white" stroke="black" stroke-width="0.5"/>
<path d="M37.9126 129.736L37.9382 129.748C37.9387 129.748 37.9392 129.749 37.9398 129.749C37.943 129.749 37.9481 129.749 37.9563 129.75C37.9603 129.75 37.9645 129.75 37.9692 129.75C37.9746 129.75 37.9807 129.75 37.9881 129.75C38.2846 129.75 38.5627 129.549 38.6698 129.201L41.3362 114.971L41.3364 114.97L41.3692 114.791C41.9445 111.656 42.5765 108.212 41.7361 104.876L41.736 104.876C41.1848 102.671 40.0034 100.704 38.8475 98.7791C38.8067 98.7111 38.7659 98.6431 38.7251 98.5752C38.657 98.4617 38.589 98.3486 38.521 98.2356C37.5658 96.6476 36.6384 95.1058 36.0856 93.3976C34.7141 89.2552 35.552 84.9078 36.4478 80.4022C36.4722 80.2743 36.4966 80.1464 36.521 80.0183C36.9217 77.9192 37.3279 75.7915 37.501 73.6653C37.864 68.8407 36.399 64.7615 34.6917 60.0074L34.661 59.9219L37.9126 129.736ZM37.9126 129.736L37.8811 129.729C37.5037 129.649 37.2855 129.325 37.3607 128.968L37.3607 128.968L37.3617 128.963L40.0308 114.719L40.0309 114.718L40.0485 114.624C40.5971 111.672 41.2242 108.299 40.4505 105.204L40.4503 105.203C39.9111 103.073 38.7801 101.192 37.5939 99.2416L37.5932 99.2405C36.5346 97.5203 35.4673 95.7476 34.8436 93.7985L34.8427 93.7957C33.3607 89.3498 34.2669 84.7128 35.1679 80.1282L35.168 80.1279C35.1912 80.0091 35.2144 79.8902 35.2377 79.771C35.6388 77.7202 36.0514 75.6098 36.2025 73.5448C36.5471 69.0111 35.1832 65.2135 33.493 60.5075C33.4754 60.4586 33.4578 60.4096 33.4402 60.3605L33.4401 60.3604C33.3783 60.1886 33.3162 60.0144 33.2535 59.8384C33.0771 59.3433 32.8957 58.8341 32.7005 58.3261M37.9126 129.736L32.7005 58.3261M32.7005 58.3261C32.5887 57.9826 32.7566 57.6213 33.1048 57.4827C33.4486 57.3713 33.8101 57.5399 33.9481 57.8889C34.1852 58.5741 34.423 59.2609 34.6609 59.9217L32.7005 58.3261Z" fill="white" stroke="black" stroke-width="0.5"/>
</svg>
