<svg width="208" height="214" viewBox="0 0 208 214" fill="none" xmlns="http://www.w3.org/2000/svg">
<path d="M99.612 112.131C96.1643 123.859 92.6882 135.614 89.212 147.484C88.8701 147.142 88.5567 146.828 88.2717 146.543C84.8811 143.147 82.6301 139.523 80.4646 135.044C79.7238 133.503 79.4104 132.419 79.1824 131.106C79.1824 131.106 79.2679 130.821 79.9233 128.938C81.5474 124.172 82.915 119.293 84.4252 114.471C85.28 111.675 86.1917 108.907 87.1035 106.139C87.6449 104.484 87.5309 102.972 86.4197 101.603C86.1633 101.289 85.7928 101.032 85.4794 100.747C87.132 100.747 97.4465 100.747 100.125 100.747C106.593 114.386 119.472 141.121 119.814 141.749C124.686 128.081 129.216 114.471 134.032 100.747C138.249 100.747 146.711 100.747 146.711 100.747C144.574 102.031 144.204 104.114 144.232 106.368C144.346 112.645 144.09 118.894 144.232 125.171C144.232 138.525 144.118 148.198 144.346 159.696C144.403 161.951 144.888 164.005 146.968 165.346C144.631 165.346 142.295 165.346 139.816 165.346C140.072 165.146 140.215 165.004 140.357 164.89C141.525 163.862 142.181 162.55 142.181 161.009C142.181 158.127 142.409 155.245 142.38 152.363C142.181 141.92 142.38 133.303 142.38 120.891C142.323 118.523 142.437 116.354 142.38 113.986C142.38 113.843 142.38 113.53 142.38 113.102C142.067 114.043 141.554 115.413 141.241 116.383C138.99 123.687 136.739 130.992 134.516 138.296C133.376 142.063 132.237 145.829 131.097 149.596C129.929 153.362 128.732 157.1 127.592 160.866C127.193 162.15 126.851 163.463 126.51 164.747C126.453 164.918 126.367 165.089 126.225 165.517C117.306 147.598 108.673 129.793 99.8969 112.074C99.783 112.103 99.6975 112.131 99.612 112.131Z" fill="white"/>
<path d="M63.9956 37.317C63.6822 47.589 63.3687 57.7754 63.0838 67.9618C63.0553 67.9618 63.0268 67.9618 62.9983 67.9618C62.9413 66.3924 62.8559 64.8516 62.8274 63.2823C62.6564 55.2074 62.514 47.1609 62.343 39.086C62.1435 29.5844 61.9441 20.0543 61.7446 10.5527C61.7161 8.72655 61.6877 6.87188 61.5167 5.04575C61.3457 3.13402 60.377 1.65028 58.6674 0.737216C58.5819 0.708682 58.5534 0.59455 58.3824 0.394817C60.3485 0.394817 62.2005 0.394817 64.0241 0.394817C69.0674 0.394817 74.1107 0.366286 79.154 0.366286C83.7698 0.366286 88.3857 0.16655 93.0016 0.394817C101.891 0.822817 108.445 6.72922 110.439 14.8612C112.32 22.5082 108.274 31.8956 100.41 35.5193C100.096 35.662 99.783 35.8332 99.2701 36.09C99.669 36.2327 99.8685 36.3468 100.096 36.4039C104.142 37.4596 107.989 38.9719 111.494 41.3116C111.95 41.6255 112.377 41.9394 112.747 42.3959C111.75 41.8823 110.753 41.3402 109.756 40.8551C106.45 39.2858 102.889 38.5439 99.2986 37.9447C95.794 37.3455 92.2608 37.374 88.7277 37.374C80.892 37.3455 73.0849 37.317 65.2493 37.2884C64.8219 37.2599 64.48 37.2884 63.9956 37.317ZM64.0811 33.465C64.5655 33.465 64.9644 33.465 65.3633 33.465C71.3183 33.4364 77.2734 33.4079 83.2285 33.3793C84.8241 33.3793 86.3627 33.1796 87.8729 32.7231C97.3326 29.8698 100.467 20.8532 97.3896 13.3204C94.9107 7.21428 89.9529 4.21829 83.4849 3.99002C77.3304 3.79029 71.1759 3.90442 65.0213 3.87588C64.7364 3.87588 64.4515 3.93295 64.0811 3.96148C64.0811 13.8055 64.0811 23.5639 64.0811 33.465Z" fill="white"/>
<path d="M90.0383 165.46C89.0981 165.46 70.1786 165.46 69.0104 165.46C70.2071 165.118 71.7457 164.633 72.857 164.233C74.9085 163.491 77.017 162.835 78.983 161.836C81.2054 160.724 82.5731 159.582 84.0263 158.013C85.9353 155.987 87.36 153.619 88.4712 151.051C88.5567 150.851 88.6707 150.68 88.7846 150.48C88.8416 150.708 88.8986 151.165 88.8416 151.507C88.5567 152.848 87.9298 154.104 87.4739 155.388C87.3885 155.673 87.189 155.93 87.189 156.215C87.1035 158.07 87.0181 159.953 87.417 161.779C87.7304 163.12 88.3572 164.205 89.497 165.004C89.5824 165.118 89.9244 165.320 90.0383 165.46Z" fill="white"/>
<path d="M105.14 78.1482C105.539 78.2338 105.824 78.3194 106.108 78.3194C106.821 78.3194 107.077 77.7773 107.305 77.2066C107.79 75.9511 108.388 75.8941 109.87 76.6645C111.066 77.2922 112.121 76.9498 112.747 76.0367C113.118 75.4661 113.175 74.6101 113.346 74.0109C114.058 71.6141 114.115 71.0719 114.799 68.4754C115.397 66.1927 116.309 64.0527 117.449 61.9698C118.531 59.9725 119.358 57.8039 120.27 55.721C120.355 55.5213 120.412 55.2359 120.583 55.1218C121.609 54.437 122.036 53.2957 122.663 52.1829C122.862 52.4682 123.005 52.6394 123.119 52.8391C124.885 56.0634 125.94 59.5445 126.424 63.1682C126.994 67.6479 126.965 72.0991 125.541 76.4077C122.435 85.7666 116.366 92.4434 107.22 96.2098C104.456 97.3511 101.607 97.8933 98.6147 97.8077C93.1156 97.6935 87.6164 97.7221 82.1172 97.7506C81.1199 97.7506 80.1227 97.237 79.5528 96.4666C78.5841 95.1826 78.2706 94.2695 78.4131 92.6431C78.5271 91.2735 79.0684 89.961 80.0087 88.7341C81.8038 86.7082 83.7128 84.7679 85.5934 82.7991C85.8783 82.4853 86.2202 82.2285 86.5621 81.9717C87.6734 81.2298 88.7561 81.0301 89.9813 81.9146C91.6339 83.0845 93.4005 84.0261 95.281 84.8535C98.5008 86.3087 101.407 83.4554 101.578 81.0586C101.635 80.4879 101.863 80.2311 102.376 80.117C102.604 80.0599 102.832 79.9743 103.06 79.9743C103.886 80.0029 104.399 79.5749 104.712 78.833C104.798 78.6047 104.969 78.405 105.14 78.1482Z" fill="white"/>
<path d="M74.0822 93.5562C73.9967 95.097 74.2247 96.4665 75.1934 97.722C71.1474 97.722 67.2438 97.722 63.3688 97.722C62.9984 97.722 63.0268 97.722 62.9984 97.722C63.1693 97.6935 66.1326 97.2655 67.7567 96.809C69.2384 96.381 70.5205 95.8673 71.7173 95.154C72.5151 94.6689 73.1989 94.1554 74.0822 93.5562Z" fill="white"/>
<path d="M60.1775 213.425V205.35H60.5479V206.719C60.7474 206.263 61.0893 205.892 61.5452 205.635C62.0011 205.35 62.4854 205.236 62.9698 205.236C63.7391 205.236 64.423 205.521 64.9643 206.092C65.5057 206.662 65.7906 207.347 65.7906 208.175C65.7906 208.973 65.5057 209.658 64.9643 210.257C64.423 210.828 63.7391 211.113 62.9698 211.113C62.4854 211.113 62.0295 210.971 61.5737 210.714C61.1178 210.457 60.7759 210.086 60.5479 209.63V213.482H60.1775V213.425ZM60.5479 208.146C60.5479 208.831 60.8043 209.459 61.2887 209.944C61.7731 210.457 62.343 210.714 63.0268 210.714C63.6821 210.714 64.252 210.457 64.7364 209.944C65.2208 209.43 65.4487 208.831 65.4487 208.117C65.4487 207.404 65.2208 206.805 64.7364 206.291C64.252 205.778 63.6821 205.521 63.0268 205.521C62.3715 205.521 61.8016 205.778 61.2887 206.291C60.7758 206.862 60.5479 207.461 60.5479 208.146Z" fill="white"/>
<path d="M70.0361 210.714V211.056C69.4663 211.056 69.0104 210.857 68.6115 210.457C68.2126 210.058 68.0131 209.573 68.0131 208.945V201.612H68.3835V208.945C68.3835 209.458 68.5545 209.858 68.8679 210.2C69.1813 210.543 69.5518 210.714 70.0361 210.714Z" fill="white"/>
<path d="M76.8745 205.35V210.942H76.5041V209.544C76.2762 210.029 75.9627 210.4 75.5068 210.657C75.0509 210.942 74.5951 211.056 74.0822 211.056C73.3129 211.056 72.6575 210.771 72.0877 210.2C71.5463 209.63 71.2614 208.945 71.2614 208.117C71.2614 207.318 71.5463 206.634 72.0877 206.034C72.629 205.464 73.3129 205.178 74.0822 205.178C74.5951 205.178 75.0794 205.321 75.5353 205.606C75.9912 205.892 76.3331 206.263 76.5041 206.719V205.35H76.8745ZM71.6603 208.146C71.6603 208.831 71.9167 209.458 72.4011 209.944C72.8855 210.429 73.4553 210.714 74.1392 210.714C74.7945 210.714 75.3644 210.457 75.8487 209.944C76.3331 209.43 76.5611 208.831 76.5611 208.117C76.5611 207.404 76.3331 206.805 75.8487 206.291C75.3644 205.778 74.7945 205.521 74.1392 205.521C73.4838 205.521 72.914 205.778 72.4011 206.291C71.8882 206.862 71.6603 207.461 71.6603 208.146Z" fill="white"/>
<path d="M80.5216 205.549C80.3222 205.549 80.1227 205.606 79.9802 205.749C79.8093 205.892 79.7523 206.063 79.7523 206.263C79.7523 206.462 79.8378 206.662 80.0087 206.833C80.1797 207.005 80.4076 207.176 80.6356 207.318C80.892 207.461 81.1485 207.632 81.3764 207.775C81.6328 207.946 81.8323 208.146 82.0317 208.403C82.2027 208.66 82.2882 208.945 82.2882 209.287C82.2882 209.772 82.1172 210.2 81.7468 210.543C81.4049 210.885 80.9775 211.056 80.4646 211.056C80.1512 211.056 79.8663 210.971 79.5813 210.828C79.2964 210.685 79.0969 210.486 78.983 210.257V209.658C79.2964 210.343 79.7523 210.714 80.4361 210.714C80.835 210.714 81.2054 210.571 81.4619 210.314C81.7468 210.058 81.8893 209.744 81.8893 209.43C81.8893 209.116 81.8038 208.831 81.6328 208.602C81.4619 208.374 81.2339 208.174 80.9775 208.032C80.7211 207.861 80.4646 207.718 80.2367 207.575C80.0087 207.433 79.7808 207.233 79.6098 207.005C79.4389 206.776 79.3534 206.52 79.3534 206.234C79.3534 205.949 79.4674 205.692 79.6953 205.492C79.9232 205.293 80.2082 205.178 80.5786 205.178C80.9205 205.178 81.2339 205.321 81.4904 205.606V206.12C81.2339 205.749 80.9205 205.549 80.5216 205.549Z" fill="white"/>
<path d="M86.4197 210.685V211.028C85.8498 211.028 85.3939 210.828 84.995 210.429C84.5961 210.029 84.3967 209.544 84.3967 208.916V203.095H84.7671V205.35H86.3912V205.692H84.7671V208.916C84.7671 209.43 84.938 209.829 85.2515 210.172C85.5649 210.514 85.9638 210.685 86.4197 210.685Z" fill="white"/>
<path d="M88.7846 203.98C88.5567 203.98 88.4427 203.866 88.4427 203.638C88.4427 203.409 88.5567 203.295 88.7846 203.295C89.0125 203.295 89.1265 203.409 89.1265 203.638C89.1265 203.866 89.0125 203.98 88.7846 203.98ZM88.9841 205.35V210.942H88.6136V205.35H88.9841Z" fill="white"/>
<path d="M94.1983 211.113H94.0843C93.315 211.113 92.6882 210.828 92.1183 210.229C91.5769 209.63 91.292 208.945 91.292 208.146C91.292 207.347 91.5769 206.662 92.1183 206.092C92.6597 205.521 93.3435 205.236 94.1698 205.236C94.9676 205.236 95.6514 205.549 96.2213 206.206V206.833C95.9649 206.463 95.6799 206.149 95.281 205.92C94.9106 205.692 94.5117 205.578 94.1128 205.578C93.4575 205.578 92.8876 205.835 92.4032 206.348C91.9188 206.862 91.6624 207.461 91.6624 208.175C91.6624 208.888 91.9188 209.487 92.4032 210.001C92.8876 210.514 93.4575 210.771 94.1128 210.771C94.5117 210.771 94.9106 210.657 95.281 210.429C95.6514 210.2 95.9649 209.887 96.2213 209.516V210.172C95.6799 210.8 95.0246 211.113 94.1983 211.113Z" fill="white"/>
<path d="M104.684 205.549C104.484 205.549 104.285 205.606 104.142 205.749C103.971 205.892 103.914 206.063 103.914 206.263C103.914 206.462 104 206.662 104.171 206.833C104.342 207.005 104.57 207.176 104.798 207.318C105.054 207.461 105.311 207.632 105.539 207.775C105.795 207.946 105.994 208.146 106.194 208.403C106.365 208.66 106.45 208.945 106.45 209.287C106.45 209.772 106.279 210.2 105.909 210.543C105.567 210.885 105.14 211.056 104.627 211.056C104.313 211.056 104.028 210.971 103.743 210.828C103.459 210.685 103.259 210.486 103.145 210.257V209.658C103.459 210.343 103.914 210.714 104.598 210.714C104.997 210.714 105.368 210.571 105.624 210.314C105.909 210.058 106.051 209.744 106.051 209.43C106.051 209.116 105.966 208.831 105.795 208.602C105.624 208.374 105.396 208.174 105.14 208.032C104.883 207.861 104.627 207.718 104.399 207.575C104.142 207.433 103.943 207.233 103.772 207.005C103.601 206.776 103.516 206.52 103.516 206.234C103.516 205.949 103.63 205.692 103.857 205.492C104.085 205.293 104.37 205.178 104.741 205.178C105.083 205.178 105.396 205.321 105.653 205.606V206.12C105.396 205.749 105.083 205.549 104.684 205.549Z" fill="white"/>
<path d="M112.975 205.35H113.346V210.942H112.975V209.801C112.576 210.657 111.893 211.056 110.924 211.056C110.268 211.056 109.699 210.828 109.243 210.343C108.787 209.858 108.559 209.287 108.559 208.574V205.35H108.929V208.602C108.929 209.173 109.129 209.687 109.499 210.086C109.87 210.514 110.354 210.714 110.895 210.714C111.437 210.714 111.921 210.514 112.348 210.086C112.776 209.658 112.975 209.173 112.975 208.602V205.35Z" fill="white"/>
<path d="M117.677 205.549C117.249 205.549 116.879 205.721 116.565 206.035C116.252 206.377 116.081 206.748 116.081 207.204V210.942H115.711V205.35H116.081V206.177C116.224 205.892 116.451 205.664 116.736 205.492C117.05 205.321 117.363 205.207 117.734 205.207C118.104 205.207 118.474 205.35 118.788 205.607V206.092C118.474 205.749 118.104 205.549 117.677 205.549Z" fill="white"/>
<path d="M125.854 205.35H126.225V210.429C126.225 211.399 125.968 212.141 125.455 212.711C124.942 213.253 124.287 213.539 123.461 213.539C123.005 213.539 122.578 213.425 122.15 213.225C121.723 212.997 121.381 212.74 121.153 212.369V211.798C121.352 212.198 121.694 212.54 122.122 212.797C122.549 213.054 123.005 213.196 123.461 213.196C124.145 213.196 124.715 212.94 125.17 212.455C125.626 211.969 125.826 211.285 125.826 210.429V209.601C125.626 210.058 125.284 210.429 124.828 210.685C124.373 210.971 123.888 211.085 123.404 211.085C122.635 211.085 121.979 210.8 121.409 210.229C120.868 209.658 120.583 208.973 120.583 208.146C120.583 207.347 120.868 206.662 121.409 206.063C121.951 205.492 122.635 205.207 123.404 205.207C123.917 205.207 124.401 205.35 124.857 205.607C125.313 205.863 125.626 206.234 125.854 206.719V205.35ZM120.982 208.146C120.982 208.859 121.238 209.459 121.723 209.972C122.207 210.486 122.777 210.743 123.461 210.743C124.116 210.743 124.686 210.486 125.17 209.972C125.655 209.459 125.883 208.859 125.883 208.146C125.883 207.433 125.655 206.833 125.17 206.32C124.686 205.806 124.116 205.549 123.461 205.549C122.805 205.549 122.207 205.806 121.723 206.32C121.238 206.833 120.982 207.461 120.982 208.146Z" fill="white"/>
<path d="M131.382 211.085H131.268C130.527 211.085 129.872 210.8 129.302 210.2C128.732 209.601 128.476 208.916 128.476 208.117C128.476 207.318 128.761 206.634 129.302 206.063C129.843 205.492 130.527 205.207 131.353 205.207C132.18 205.207 132.864 205.549 133.462 206.234L129.729 210.086C130.242 210.514 130.727 210.742 131.211 210.742C131.695 210.742 132.123 210.628 132.493 210.4C132.864 210.172 133.177 209.858 133.433 209.487V210.115C132.864 210.771 132.18 211.085 131.382 211.085ZM131.268 205.578C130.641 205.578 130.071 205.835 129.587 206.348C129.102 206.862 128.846 207.433 128.846 208.117C128.846 208.774 129.045 209.373 129.473 209.858L132.921 206.263C132.465 205.806 131.895 205.578 131.268 205.578Z" fill="white"/>
<path d="M136.169 210.2C135.627 209.601 135.342 208.916 135.342 208.117C135.342 207.318 135.627 206.634 136.169 206.063C136.71 205.492 137.394 205.207 138.163 205.207C138.933 205.207 139.616 205.492 140.158 206.063C140.699 206.634 140.984 207.318 140.984 208.117C140.984 208.916 140.728 209.601 140.186 210.2C139.645 210.8 138.99 211.085 138.22 211.085H138.106C137.365 211.085 136.739 210.8 136.169 210.2ZM140.614 208.146C140.614 207.433 140.386 206.833 139.901 206.32C139.417 205.806 138.847 205.549 138.192 205.549C137.536 205.549 136.967 205.806 136.454 206.32C135.969 206.833 135.713 207.433 135.713 208.146C135.713 208.831 135.969 209.458 136.454 209.944C136.938 210.457 137.508 210.714 138.192 210.714C138.847 210.714 139.417 210.457 139.901 209.944C140.386 209.458 140.614 208.859 140.614 208.146Z" fill="white"/>
<path d="M143.577 210.942H143.207V205.35H143.577V206.491C143.976 205.635 144.66 205.236 145.628 205.236C146.284 205.236 146.854 205.464 147.31 205.949C147.765 206.434 147.993 207.005 147.993 207.718V210.971H147.623V207.718C147.623 207.147 147.424 206.634 147.053 206.234C146.683 205.806 146.198 205.607 145.657 205.607C145.116 205.607 144.631 205.806 144.204 206.234C143.776 206.662 143.577 207.147 143.577 207.718V210.942Z" fill="white"/>
<path d="M0.284912 195.82V195.62H0.626829C1.1682 195.62 1.51012 195.534 1.65258 195.335C1.79505 195.163 1.90902 194.764 1.93202 194.165L2.50738 182.38V181.952C2.50738 181.696 2.45039 181.524 2.30793 181.439C2.16546 181.353 1.88053 181.296 1.45313 181.296H0.598339V181.096H3.76108L9.31724 192.795C9.54519 193.252 9.65916 193.537 9.65916 193.68H9.74464C9.74464 193.537 9.83012 193.223 10.0296 192.795L15.5857 181.096H18.8055V181.268H18.0361C17.5518 181.268 17.2098 181.325 17.0674 181.467C16.9249 181.61 16.8394 181.838 16.8394 182.152C16.8394 182.209 16.8394 182.295 16.8394 182.409C16.8394 182.523 16.8394 182.637 16.8394 182.694L17.3523 194.108C17.3808 194.707 17.4663 195.106 17.6372 195.278C17.7797 195.449 18.1501 195.563 18.72 195.563H19.1759V195.734H13.5912V195.563H14.3605C14.9019 195.563 15.2723 195.506 15.4433 195.363C15.6142 195.22 15.6997 195.021 15.6997 194.764V194.422L15.2723 183.664C15.2723 183.408 15.2438 183.122 15.2438 182.751H15.1014C15.1014 182.808 14.9874 183.094 14.7594 183.579L9.00382 195.82L8.94683 195.962H8.91834L8.86135 195.82L3.19121 183.807C3.04875 183.436 2.96327 183.151 2.96327 182.951H2.87779C2.87779 183.179 2.87779 183.408 2.8493 183.636L2.30793 194.364C2.30793 194.422 2.30793 194.507 2.30793 194.621C2.30793 194.735 2.30793 194.792 2.30793 194.85C2.30793 195.106 2.39341 195.306 2.56436 195.392C2.73532 195.506 3.10574 195.563 3.6756 195.563H4.44491V195.734H0.284912V195.82Z" fill="white"/>
<path d="M21.6833 195.82V195.648H22.0252C22.2816 195.648 22.4811 195.534 22.6521 195.335C22.823 195.135 23.0225 194.821 23.2219 194.393L29.234 181.154H30.8866V181.41C30.8866 181.924 30.9436 182.323 31.086 182.609L36.1293 194.422C36.2718 194.764 36.3573 194.964 36.4142 195.049C36.4427 195.135 36.5282 195.249 36.6422 195.392C36.7562 195.534 36.8701 195.62 36.9556 195.648C37.0696 195.677 37.2121 195.677 37.4115 195.677H37.5825V195.848H33.5079V195.677H35.1321V195.648C34.9611 195.591 34.7332 195.249 34.4767 194.678L33.28 191.882H24.789L23.6493 194.422C23.5638 194.65 23.5353 194.792 23.5353 194.878C23.5353 195.106 23.6208 195.306 23.8203 195.449C24.0197 195.591 24.2477 195.677 24.5611 195.677H25.6153V195.848H21.6833V195.82ZM24.9315 191.454H33.0805L29.4334 182.923C29.3195 182.666 29.2625 182.409 29.2625 182.095H29.063C29.063 182.266 28.9775 182.552 28.8066 182.923L24.9315 191.454Z" fill="white"/>
<path d="M40.1469 195.82V195.705H40.3463C40.7737 195.705 41.1156 195.591 41.3436 195.392C41.6 195.192 41.8849 194.764 42.2553 194.079L45.1616 188.629L42.3693 182.951C42.0559 182.323 41.771 181.895 41.543 181.696C41.3151 181.467 41.0301 181.382 40.7167 181.382H40.4603V181.21H44.1359V181.382H42.9677V181.41C43.1101 181.467 43.3096 181.61 43.5320 181.838C43.7655 182.066 43.9364 182.295 44.0504 182.552L46.4153 187.374L48.9512 182.922C49.2647 182.409 49.4071 182.038 49.4071 181.81C49.4071 181.524 49.0937 181.382 48.4668 181.382H47.6975V181.21H51.2877V181.382H51.0312C50.7178 181.382 50.4329 181.496 50.2334 181.696C50.034 181.895 49.7205 182.323 49.3501 182.98L46.6148 187.802L49.7206 194.108C50.1764 194.906 50.4899 195.363 50.6608 195.506C50.8033 195.648 51.0312 195.705 51.2877 195.705H51.6581V195.877H46.7003V195.648H47.1562C47.897 195.648 48.2959 195.477 48.2959 195.135C48.2959 194.935 48.1534 194.593 47.897 194.136L45.3896 189L42.7112 194.05C42.4263 194.593 42.2553 194.964 42.2553 195.192C42.2553 195.506 42.5973 195.648 43.2526 195.648H43.9934V195.82H40.1469Z" fill="white"/>
<path d="M54.3649 195.82V195.648H55.1058C55.6186 195.648 55.9321 195.591 56.0745 195.477C56.1885 195.363 56.2455 195.078 56.2455 194.564V182.38C56.2455 181.895 56.1885 181.582 56.0745 181.467C55.9605 181.353 55.6186 181.296 55.1058 181.296H54.3649V181.125H59.8071V181.353H59.0663C58.5534 181.353 58.2115 181.41 58.0975 181.524C57.9551 181.639 57.8981 181.924 57.8981 182.438V194.593C57.8981 195.078 57.9551 195.392 58.0975 195.506C58.24 195.62 58.5534 195.677 59.0663 195.677H59.8071V195.848H54.3649V195.82Z" fill="white"/>
<path d="M62.4 195.82V195.62H62.7419C63.2832 195.62 63.6252 195.534 63.7676 195.335C63.9101 195.163 64.0241 194.764 64.0526 194.165L64.6224 182.38V181.952C64.6224 181.696 64.5654 181.524 64.423 181.439C64.2805 181.353 63.9956 181.296 63.5682 181.296H62.7134V181.096H65.8761L71.4323 192.795C71.6602 193.252 71.7742 193.537 71.7742 193.68H71.8597C71.8597 193.537 71.9452 193.223 72.1446 192.795L77.7008 181.096H80.9205V181.268H80.2082C79.7238 181.268 79.3819 181.325 79.2394 181.467C79.0969 181.61 79.0115 181.838 79.0115 182.152C79.0115 182.209 79.0115 182.295 79.0115 182.409C79.0115 182.523 79.0115 182.637 79.0115 182.694L79.5243 194.108C79.5528 194.707 79.6383 195.106 79.8093 195.278C79.9517 195.449 80.3221 195.563 80.892 195.563H81.3479V195.734H75.7632V195.563H76.5326C77.0739 195.563 77.4443 195.506 77.6153 195.363C77.7863 195.22 77.8717 195.021 77.8717 194.764V194.422L77.4443 183.664C77.4443 183.408 77.4158 183.122 77.4158 182.751H77.2734C77.2734 182.808 77.1594 183.094 76.9315 183.579L71.1758 195.82L71.1189 195.962H71.0334L70.9764 195.82L65.3063 183.807C65.1638 183.436 65.0783 183.151 65.0783 182.951H64.9928C64.9928 183.179 64.9928 183.408 64.9643 183.636L64.423 194.364C64.423 194.422 64.423 194.507 64.423 194.621C64.423 194.735 64.423 194.792 64.423 194.85C64.423 195.106 64.5085 195.306 64.6794 195.392C64.8504 195.506 65.2208 195.563 65.7906 195.563H66.56V195.734H62.4V195.82Z" fill="white"/>
<path d="M91.4915 195.82V195.62H92.2323C92.7452 195.62 93.0586 195.563 93.201 195.449C93.315 195.335 93.372 195.021 93.372 194.536V182.409C93.372 181.924 93.315 181.61 93.201 181.496C93.0871 181.382 92.7452 181.325 92.2323 181.325H91.4915V181.154H96.7057C98.2158 181.154 99.441 181.439 100.381 182.01C101.322 182.58 101.777 183.322 101.777 184.235C101.777 184.863 101.493 185.462 100.951 186.033C100.381 186.603 99.6405 186.974 98.7287 187.088V187.174C100.068 187.26 101.179 187.773 102.062 188.658C102.946 189.542 103.402 190.512 103.402 191.597C103.402 192.852 102.832 193.879 101.721 194.65C100.609 195.449 99.1846 195.848 97.5035 195.848H91.4915V195.82ZM94.6827 195.449H97.1046C98.4438 195.449 99.5265 195.106 100.324 194.393C101.122 193.68 101.55 192.738 101.55 191.568C101.55 190.341 101.122 189.343 100.267 188.544C99.4125 187.745 98.3298 187.345 96.9906 187.345H95.8509V187.003H96.7057C97.646 187.003 98.4438 186.746 99.0421 186.232C99.6405 185.719 99.9539 185.063 99.9539 184.264C99.9539 183.436 99.6405 182.751 98.9852 182.266C98.3298 181.753 97.475 181.524 96.4208 181.524H94.6827V181.553C94.9106 181.781 95.0246 182.152 95.0246 182.609V194.393C95.0246 194.85 94.9106 195.192 94.6827 195.449Z" fill="white"/>
<path d="M104.798 195.82V195.648H105.14C105.396 195.648 105.596 195.534 105.767 195.335C105.938 195.135 106.137 194.821 106.336 194.393L112.348 181.154H114.001V181.41C114.001 181.924 114.058 182.323 114.201 182.609L119.244 194.422C119.386 194.764 119.472 194.964 119.529 195.049C119.557 195.135 119.643 195.249 119.757 195.392C119.871 195.534 119.985 195.62 120.07 195.648C120.184 195.677 120.327 195.677 120.526 195.677H120.697V195.848H116.622V195.677H118.247V195.648C118.076 195.591 117.848 195.249 117.591 194.678L116.395 191.882H107.904L106.764 194.422C106.678 194.65 106.65 194.792 106.65 194.878C106.65 195.106 106.735 195.306 106.935 195.449C107.134 195.591 107.362 195.677 107.676 195.677H108.73V195.848H104.798V195.82ZM108.046 191.454H116.195L112.548 182.923C112.434 182.666 112.377 182.409 112.377 182.095H112.178C112.178 182.266 112.092 182.552 111.921 182.923L108.046 191.454Z" fill="white"/>
<path d="M123.261 195.82L123.29 195.705H124.031C124.544 195.705 124.857 195.648 124.999 195.534C125.113 195.42 125.17 195.106 125.17 194.621V182.466C125.17 181.981 125.113 181.667 124.999 181.553C124.885 181.439 124.544 181.382 124.031 181.382H123.29V181.211H128.875C130.584 181.211 131.952 181.61 133.006 182.409C134.06 183.208 134.573 184.264 134.573 185.548C134.573 186.746 134.146 187.745 133.291 188.458C132.436 189.2 131.353 189.628 130.014 189.742L129.587 189.771V189.885C130.271 189.942 131.382 190.655 132.949 191.968C133.035 192.025 133.319 192.281 133.832 192.738C134.345 193.194 134.687 193.48 134.887 193.623C135.086 193.765 135.428 194.022 135.912 194.364C136.397 194.707 136.824 194.935 137.138 195.078C137.479 195.22 137.878 195.335 138.363 195.477C138.847 195.62 139.332 195.677 139.816 195.677C141.07 195.677 142.038 195.392 142.694 194.764C143.349 194.165 143.691 193.309 143.691 192.167C143.691 191.682 143.548 191.254 143.292 190.855C143.036 190.455 142.694 190.113 142.295 189.799C141.896 189.514 141.44 189.228 140.927 188.943C140.414 188.658 139.93 188.372 139.417 188.087C138.904 187.802 138.477 187.459 138.049 187.117C137.65 186.774 137.308 186.320 137.052 185.89C136.796 185.405 136.653 184.863 136.653 184.292C136.653 183.293 137.052 182.494 137.821 181.895C138.591 181.296 139.616 180.982 140.87 180.982C141.924 180.982 142.865 181.296 143.719 181.895C143.89 182.009 144.004 182.152 144.061 182.352L144.204 182.323C144.147 182.152 144.118 181.924 144.118 181.667L144.061 180.583H144.289L144.517 185.405L144.118 185.433L144.09 184.577C144.061 183.693 143.748 182.922 143.207 182.323C142.665 181.696 141.867 181.382 140.87 181.382C140.015 181.382 139.331 181.61 138.876 182.038C138.42 182.466 138.163 183.094 138.163 183.893C138.163 184.349 138.306 184.777 138.562 185.148C138.819 185.519 139.161 185.861 139.588 186.147C140.015 186.432 140.471 186.717 140.984 187.003C141.497 187.288 142.01 187.573 142.523 187.859C143.036 188.173 143.491 188.486 143.919 188.829C144.346 189.171 144.688 189.628 144.945 190.113C145.201 190.626 145.344 191.197 145.344 191.825C145.344 193.08 144.802 194.079 143.748 194.849C142.694 195.62 141.298 195.991 139.559 195.991C137.821 195.991 136.311 195.677 135.058 195.078C133.775 194.478 132.579 193.68 131.41 192.709C130.983 192.367 130.527 191.91 129.986 191.368C129.444 190.826 129.017 190.427 128.704 190.17C128.39 189.913 128.105 189.799 127.849 189.799H127.706V189.457H128.675C129.986 189.457 130.983 189.114 131.667 188.429C132.351 187.745 132.693 186.774 132.693 185.462C132.693 184.178 132.351 183.179 131.667 182.523C130.983 181.838 129.986 181.524 128.704 181.524H126.481V181.553C126.709 181.781 126.823 182.152 126.823 182.609V194.593C126.823 195.078 126.88 195.392 127.022 195.506C127.165 195.62 127.478 195.677 127.991 195.677H129.245V195.848H123.261V195.82Z" fill="white"/>
<path d="M146.911 195.82V195.648H147.253C147.509 195.648 147.708 195.534 147.879 195.335C148.05 195.135 148.25 194.821 148.449 194.393L154.461 181.154H156.114V181.41C156.114 181.924 156.171 182.323 156.313 182.609L161.357 194.422C161.499 194.764 161.585 194.964 161.642 195.049C161.67 195.135 161.756 195.249 161.87 195.392C161.984 195.534 162.097 195.62 162.183 195.648C162.297 195.677 162.439 195.677 162.639 195.677H162.81V195.848H158.735V195.677H160.359V195.648C160.188 195.591 159.961 195.249 159.704 194.678L158.507 191.882H150.016L148.877 194.422C148.791 194.65 148.763 194.792 148.763 194.878C148.763 195.106 148.848 195.306 149.048 195.449C149.247 195.591 149.475 195.677 149.788 195.677H150.843V195.848H146.911V195.82ZM150.159 191.454H158.308L154.661 182.923C154.547 182.666 154.49 182.409 154.49 182.095H154.29C154.29 182.266 154.205 182.552 154.034 182.923L150.159 191.454Z" fill="white"/>
<path d="M165.374 195.819L165.403 195.591H166.144C166.656 195.591 166.97 195.534 167.112 195.391C167.226 195.249 167.283 194.906 167.283 194.336V182.352C167.283 181.867 167.226 181.553 167.112 181.439C166.998 181.325 166.656 181.267 166.144 181.267H165.403V181.096H170.304V181.267H170.104C169.591 181.267 169.249 181.325 169.135 181.439C168.993 181.553 168.936 181.838 168.936 182.323V186.974C169.705 186.974 170.19 186.889 170.332 186.689L173.723 182.637C173.951 182.352 174.065 182.066 174.065 181.867C174.065 181.496 173.694 181.325 172.953 181.325H172.754V181.153H177.598V181.325H177.227C175.917 181.325 174.862 181.781 174.093 182.723L170.702 186.831L170.731 186.917C171.5 187.088 172.184 187.431 172.782 187.916C173.381 188.429 174.008 189.114 174.691 189.97C174.834 190.17 175.09 190.512 175.461 190.997C175.831 191.482 176.116 191.853 176.287 192.082C176.458 192.31 176.743 192.652 177.142 193.08C177.541 193.537 177.854 193.851 178.139 194.079C178.424 194.307 178.794 194.564 179.222 194.878C179.678 195.192 180.105 195.42 180.533 195.563C180.96 195.705 181.444 195.848 182.014 195.962C182.584 196.076 183.154 196.133 183.752 196.133C185.177 196.133 186.516 195.877 187.741 195.334C188.967 194.821 189.878 194.307 190.448 193.822L190.904 193.423L191.018 193.565L190.534 193.965C189.679 194.678 188.568 195.334 187.2 195.905C185.832 196.476 184.408 196.761 182.983 196.761C182.157 196.761 181.387 196.675 180.647 196.533C179.906 196.39 179.25 196.133 178.624 195.791C178.025 195.449 177.484 195.135 176.999 194.792C176.515 194.45 176.031 194.022 175.546 193.48C175.062 192.938 174.663 192.481 174.378 192.139C174.093 191.768 173.723 191.311 173.295 190.712C172.27 189.342 171.557 188.458 171.13 188.087C170.446 187.488 169.791 187.174 169.135 187.174H168.85V194.478C168.85 195.021 168.907 195.334 169.05 195.477C169.192 195.62 169.506 195.677 170.019 195.677H170.759V195.848H165.374V195.819ZM184.693 193.309C182.755 193.309 181.216 192.738 180.02 191.625C178.851 190.484 178.253 189 178.253 187.117C178.253 185.262 178.851 183.778 180.02 182.637C181.188 181.496 182.755 180.954 184.693 180.954C186.602 180.954 188.169 181.524 189.337 182.637C190.505 183.778 191.104 185.262 191.104 187.117C191.104 188.971 190.505 190.455 189.337 191.597C188.169 192.738 186.602 193.309 184.693 193.309ZM184.75 192.938C186.203 192.938 187.314 192.481 188.055 191.539C188.824 190.626 189.194 189.257 189.194 187.488C189.194 185.49 188.796 183.95 187.998 182.894C187.2 181.838 186.06 181.296 184.579 181.296C183.125 181.296 182.014 181.753 181.245 182.694C180.476 183.607 180.105 184.977 180.105 186.746C180.105 188.772 180.504 190.284 181.302 191.34C182.1 192.424 183.239 192.938 184.75 192.938Z" fill="white"/>
<path d="M192.329 181.125H196.574V181.296H194.922V181.325C195.15 181.41 195.349 181.724 195.577 182.266L200.506 193.651C200.62 194.022 200.677 194.25 200.677 194.393H200.962C200.962 194.165 201.019 193.879 201.19 193.566L206.005 182.552C206.091 182.352 206.119 182.152 206.119 182.01C206.119 181.524 205.777 181.296 205.094 181.296H203.242V181.125H207.914V181.296H207.63C207.202 181.296 206.917 181.467 206.746 181.781C206.689 181.867 206.575 182.124 206.404 182.552L200.734 195.905L199.594 195.991L193.924 182.58C193.668 181.981 193.468 181.61 193.326 181.496C193.184 181.382 192.956 181.325 192.671 181.325H192.357V181.125H192.329Z" fill="white"/>
</svg>
